<?xml version="1.0" encoding="UTF-8"?>
<!DOCTYPE svg PUBLIC "-//W3C//DTD SVG 1.1//EN" "http://www.w3.org/Graphics/SVG/1.1/DTD/svg11.dtd">
<svg xmlns="http://www.w3.org/2000/svg" version="1.1" width="1280px" height="767px"
     style="shape-rendering:geometricPrecision; text-rendering:geometricPrecision; image-rendering:optimizeQuality; fill-rule:evenodd; clip-rule:evenodd"
     xmlns:xlink="http://www.w3.org/1999/xlink">
    <g>
        <path style="opacity:1" fill="#cce8fe"
              d="M -0.5,-0.5 C 95.1667,-0.5 190.833,-0.5 286.5,-0.5C 298.089,9.75099 309.422,20.4177 320.5,31.5C 313.679,32.1667 307.012,32.8334 300.5,33.5C 205.985,31.8589 111.485,32.5256 17,35.5C 11.1327,35.4303 5.29932,35.097 -0.5,34.5C -0.5,22.8333 -0.5,11.1667 -0.5,-0.5 Z"/>
    </g>
    <g>
        <path style="opacity:1" fill="#c5e5fe"
              d="M 286.5,-0.5 C 313.833,-0.5 341.167,-0.5 368.5,-0.5C 380.301,11.1331 392.301,22.6331 404.5,34C 401.635,34.1829 398.969,34.6829 396.5,35.5C 364.508,34.6614 332.508,33.9947 300.5,33.5C 307.012,32.8334 313.679,32.1667 320.5,31.5C 309.422,20.4177 298.089,9.75099 286.5,-0.5 Z"/>
    </g>
    <g>
        <path style="opacity:1" fill="#bde2fe"
              d="M 368.5,-0.5 C 393.5,-0.5 418.5,-0.5 443.5,-0.5C 456.693,11.9372 469.693,24.6038 482.5,37.5C 453.836,36.7857 425.169,36.1191 396.5,35.5C 398.969,34.6829 401.635,34.1829 404.5,34C 392.301,22.6331 380.301,11.1331 368.5,-0.5 Z"/>
    </g>
    <g>
        <path style="opacity:1" fill="#b3ddff"
              d="M 443.5,-0.5 C 481.833,-0.5 520.167,-0.5 558.5,-0.5C 570.968,11.7997 583.635,23.9664 596.5,36C 599.848,37.9687 603.514,38.9687 607.5,39C 601.652,39.1728 595.985,39.6728 590.5,40.5C 554.508,39.2631 518.508,38.2631 482.5,37.5C 469.693,24.6038 456.693,11.9372 443.5,-0.5 Z"/>
    </g>
    <g>
        <path style="opacity:1" fill="#a7d8fe"
              d="M 558.5,-0.5 C 798.833,-0.5 1039.17,-0.5 1279.5,-0.5C 1279.5,30.1667 1279.5,60.8333 1279.5,91.5C 1215.32,99.7391 1150.99,106.906 1086.5,113C 1040.91,117.823 995.908,125.823 951.5,137C 932.245,142.455 913.245,148.789 894.5,156C 933.182,154.867 971.848,155.867 1010.5,159C 1072.94,165.04 1135.28,172.04 1197.5,180C 1224.43,182.903 1251.43,184.903 1278.5,186C 1272.64,191.514 1265.98,195.848 1258.5,199C 1228.38,209.143 1197.38,214.643 1165.5,215.5C 1164.76,213.695 1163.76,212.029 1162.5,210.5C 1160.14,213.888 1158.31,217.554 1157,221.5C 1156.77,220.263 1156.27,219.263 1155.5,218.5C 1154.36,211.401 1152.02,204.734 1148.5,198.5C 1145.1,204.043 1143.1,210.043 1142.5,216.5C 1144.1,216.312 1145.44,216.812 1146.5,218C 1144.53,218.495 1142.53,218.662 1140.5,218.5C 1085.76,218.517 1031.1,220.35 976.5,224C 918.088,224.68 859.755,226.847 801.5,230.5C 789.735,218.735 776.735,205.735 762.5,191.5C 760.591,192.348 758.591,192.682 756.5,192.5C 778.719,185.517 801.052,178.351 823.5,171C 791.223,173.496 758.889,175.663 726.5,177.5C 723.813,177.664 721.146,177.497 718.5,177C 727.159,176.239 735.826,175.572 744.5,175C 727.532,159.7 710.865,144.033 694.5,128C 687.476,128.253 680.476,129.086 673.5,130.5C 671.955,130.489 670.622,130.156 669.5,129.5C 805.97,110.129 940.97,83.6287 1074.5,50C 913.111,49.523 751.778,46.3563 590.5,40.5C 595.985,39.6728 601.652,39.1728 607.5,39C 603.514,38.9687 599.848,37.9687 596.5,36C 583.635,23.9664 570.968,11.7997 558.5,-0.5 Z"/>
    </g>
    <g>
        <path style="opacity:1" fill="#d8edfe"
              d="M 300.5,33.5 C 332.508,33.9947 364.508,34.6614 396.5,35.5C 425.169,36.1191 453.836,36.7857 482.5,37.5C 518.508,38.2631 554.508,39.2631 590.5,40.5C 751.778,46.3563 913.111,49.523 1074.5,50C 940.97,83.6287 805.97,110.129 669.5,129.5C 643.189,133.274 616.856,136.94 590.5,140.5C 565.192,143.718 539.859,146.718 514.5,149.5C 493.824,151.723 473.157,154.056 452.5,156.5C 319.719,169.616 186.719,180.116 53.5,188C 129.954,191.539 206.454,193.039 283,192.5C 349.018,192.888 414.852,191.888 480.5,189.5C 504.691,189.246 528.691,188.246 552.5,186.5C 581.368,186.196 610.035,184.863 638.5,182.5C 668.032,181.58 697.365,179.914 726.5,177.5C 758.889,175.663 791.223,173.496 823.5,171C 801.052,178.351 778.719,185.517 756.5,192.5C 726.236,199.488 695.902,206.155 665.5,212.5C 622.629,220.234 579.629,227.234 536.5,233.5C 452.508,245.332 368.508,257.166 284.5,269C 286.065,270.506 286.399,272.006 285.5,273.5C 284.046,270.592 282.546,267.592 281,264.5C 279.541,266.432 278.375,268.432 277.5,270.5C 192.106,281.841 106.773,293.674 21.5,306C 13.9351,307.889 6.60173,310.389 -0.5,313.5C -0.5,220.5 -0.5,127.5 -0.5,34.5C 5.29932,35.097 11.1327,35.4303 17,35.5C 111.485,32.5256 205.985,31.8589 300.5,33.5 Z"/>
    </g>
    <g>
        <path style="opacity:1" fill="#d8edfe"
              d="M 1279.5,91.5 C 1279.5,155.833 1279.5,220.167 1279.5,284.5C 1278.17,284.5 1276.83,284.5 1275.5,284.5C 1277.2,282.2 1277.87,279.533 1277.5,276.5C 1240.16,278.056 1202.83,279.723 1165.5,281.5C 1164.95,287.792 1165.61,293.792 1167.5,299.5C 1166.39,299.557 1165.39,299.89 1164.5,300.5C 1164.33,292.493 1164.5,284.493 1165,276.5C 1167.75,271.511 1169.25,266.178 1169.5,260.5C 1168.45,260.649 1167.45,260.483 1166.5,260C 1167.89,258.98 1169.39,258.147 1171,257.5C 1172.98,242.916 1171.15,228.916 1165.5,215.5C 1197.38,214.643 1228.38,209.143 1258.5,199C 1265.98,195.848 1272.64,191.514 1278.5,186C 1251.43,184.903 1224.43,182.903 1197.5,180C 1135.28,172.04 1072.94,165.04 1010.5,159C 971.848,155.867 933.182,154.867 894.5,156C 913.245,148.789 932.245,142.455 951.5,137C 995.908,125.823 1040.91,117.823 1086.5,113C 1150.99,106.906 1215.32,99.7391 1279.5,91.5 Z"/>
    </g>
    <g>
        <path style="opacity:1" fill="#b3ddff"
              d="M 726.5,177.5 C 697.365,179.914 668.032,181.58 638.5,182.5C 623.123,169.964 608.457,156.464 594.5,142C 592.942,141.79 591.609,141.29 590.5,140.5C 616.856,136.94 643.189,133.274 669.5,129.5C 670.622,130.156 671.955,130.489 673.5,130.5C 680.476,129.086 687.476,128.253 694.5,128C 710.865,144.033 727.532,159.7 744.5,175C 735.826,175.572 727.159,176.239 718.5,177C 721.146,177.497 723.813,177.664 726.5,177.5 Z"/>
    </g>
    <g>
        <path style="opacity:1" fill="#bde2fe"
              d="M 590.5,140.5 C 591.609,141.29 592.942,141.79 594.5,142C 608.457,156.464 623.123,169.964 638.5,182.5C 610.035,184.863 581.368,186.196 552.5,186.5C 550.473,186.662 548.473,186.495 546.5,186C 552.5,185.667 558.5,185.333 564.5,185C 552.322,173.655 540.322,162.155 528.5,150.5C 523.744,150.586 519.078,150.252 514.5,149.5C 539.859,146.718 565.192,143.718 590.5,140.5 Z"/>
    </g>
    <g>
        <path style="opacity:1" fill="#c5e5fe"
              d="M 514.5,149.5 C 519.078,150.252 523.744,150.586 528.5,150.5C 540.322,162.155 552.322,173.655 564.5,185C 558.5,185.333 552.5,185.667 546.5,186C 548.473,186.495 550.473,186.662 552.5,186.5C 528.691,188.246 504.691,189.246 480.5,189.5C 477.813,189.664 475.146,189.497 472.5,189C 477.167,188.667 481.833,188.333 486.5,188C 475.271,177.266 463.937,166.766 452.5,156.5C 473.157,154.056 493.824,151.723 514.5,149.5 Z"/>
    </g>
    <g>
        <path style="opacity:1" fill="#cce8fe"
              d="M 452.5,156.5 C 463.937,166.766 475.271,177.266 486.5,188C 481.833,188.333 477.167,188.667 472.5,189C 475.146,189.497 477.813,189.664 480.5,189.5C 414.852,191.888 349.018,192.888 283,192.5C 206.454,193.039 129.954,191.539 53.5,188C 186.719,180.116 319.719,169.616 452.5,156.5 Z"/>
    </g>
    <g>
        <path style="opacity:1" fill="#b3ddfe"
              d="M 801.5,230.5 C 768.378,234.224 735.045,237.224 701.5,239.5C 698.482,239.665 695.482,239.498 692.5,239C 693.833,238.667 695.167,238.333 696.5,238C 687.533,230.368 678.866,222.368 670.5,214C 668.618,213.802 666.952,213.302 665.5,212.5C 695.902,206.155 726.236,199.488 756.5,192.5C 758.591,192.682 760.591,192.348 762.5,191.5C 776.735,205.735 789.735,218.735 801.5,230.5 Z"/>
    </g>
    <g>
        <path style="opacity:1" fill="#477421"
              d="M 1155.5,218.5 C 1155.59,220.696 1155.92,222.863 1156.5,225C 1155.26,227.717 1154.43,230.551 1154,233.5C 1153.81,240.747 1153.31,247.913 1152.5,255C 1153.33,255.915 1154.33,256.581 1155.5,257C 1154.58,259.041 1154.24,261.208 1154.5,263.5C 1153.5,267.67 1152,271.67 1150,275.5C 1149.5,284.827 1149.33,294.161 1149.5,303.5C 1148.78,303.918 1148.28,304.584 1148,305.5C 1147.83,295.325 1147.33,285.325 1146.5,275.5C 1146.44,274.391 1146.11,273.391 1145.5,272.5C 1144.98,265.847 1143.65,259.347 1141.5,253C 1142.33,252.085 1143.33,251.419 1144.5,251C 1143.17,250.667 1141.83,250.333 1140.5,250C 1139.75,249.329 1139.41,248.496 1139.5,247.5C 1139.34,237.809 1139.68,228.143 1140.5,218.5C 1142.53,218.662 1144.53,218.495 1146.5,218C 1145.44,216.812 1144.1,216.312 1142.5,216.5C 1143.1,210.043 1145.1,204.043 1148.5,198.5C 1152.02,204.734 1154.36,211.401 1155.5,218.5 Z"/>
    </g>
    <g>
        <path style="opacity:1" fill="#c0e3fe"
              d="M 665.5,212.5 C 666.952,213.302 668.618,213.802 670.5,214C 678.866,222.368 687.533,230.368 696.5,238C 695.167,238.333 693.833,238.667 692.5,239C 695.482,239.498 698.482,239.665 701.5,239.5C 652.695,244.034 603.695,248.034 554.5,251.5C 547.457,246.457 541.457,240.457 536.5,233.5C 579.629,227.234 622.629,220.234 665.5,212.5 Z"/>
    </g>
    <g>
        <path style="opacity:1" fill="#6d9946"
              d="M 1165.5,215.5 C 1171.15,228.916 1172.98,242.916 1171,257.5C 1169.39,258.147 1167.89,258.98 1166.5,260C 1167.45,260.483 1168.45,260.649 1169.5,260.5C 1169.25,266.178 1167.75,271.511 1165,276.5C 1164.5,284.493 1164.33,292.493 1164.5,300.5C 1164.5,302.167 1164.5,303.833 1164.5,305.5C 1164.78,307.346 1164.11,308.68 1162.5,309.5C 1161.61,308.675 1161.28,307.675 1161.5,306.5C 1161.78,304.585 1161.45,302.919 1160.5,301.5C 1161.63,293.579 1161.8,285.579 1161,277.5C 1158.72,272.808 1156.56,268.141 1154.5,263.5C 1154.24,261.208 1154.58,259.041 1155.5,257C 1154.33,256.581 1153.33,255.915 1152.5,255C 1153.31,247.913 1153.81,240.747 1154,233.5C 1154.43,230.551 1155.26,227.717 1156.5,225C 1155.92,222.863 1155.59,220.696 1155.5,218.5C 1156.27,219.263 1156.77,220.263 1157,221.5C 1158.31,217.554 1160.14,213.888 1162.5,210.5C 1163.76,212.029 1164.76,213.695 1165.5,215.5 Z"/>
    </g>
    <g>
        <path style="opacity:1" fill="#d8edfe"
              d="M 1140.5,218.5 C 1139.68,228.143 1139.34,237.809 1139.5,247.5C 1138.85,246.909 1138.18,246.243 1137.5,245.5C 1135.31,248.554 1133.64,251.888 1132.5,255.5C 1133.09,256.799 1134.09,257.632 1135.5,258C 1134.21,258.49 1132.87,258.657 1131.5,258.5C 1130.61,265.791 1130.27,273.124 1130.5,280.5C 1134.55,280.21 1135.05,280.877 1132,282.5C 1131.51,284.545 1131.68,286.545 1132.5,288.5C 1130.81,287.816 1129.81,286.483 1129.5,284.5C 1127.5,284.167 1125.5,283.833 1123.5,283.5C 1039.41,287.504 955.414,291.838 871.5,296.5C 870.289,293.074 868.789,289.741 867,286.5C 864.342,290.148 862.509,294.148 861.5,298.5C 853.766,296.418 845.766,295.918 837.5,297C 659.436,305.768 481.436,314.601 303.5,323.5C 306.222,307.162 303.555,291.829 295.5,277.5C 381.799,267.703 468.133,259.037 554.5,251.5C 603.695,248.034 652.695,244.034 701.5,239.5C 735.045,237.224 768.378,234.224 801.5,230.5C 859.755,226.847 918.088,224.68 976.5,224C 1031.1,220.35 1085.76,218.517 1140.5,218.5 Z"/>
    </g>
    <g>
        <path style="opacity:1" fill="#cce8fd"
              d="M 536.5,233.5 C 541.457,240.457 547.457,246.457 554.5,251.5C 468.133,259.037 381.799,267.703 295.5,277.5C 295.19,276.262 294.69,276.262 294,277.5C 292.121,281.259 290.287,284.925 288.5,288.5C 287.975,283.4 286.975,278.4 285.5,273.5C 286.399,272.006 286.065,270.506 284.5,269C 368.508,257.166 452.508,245.332 536.5,233.5 Z"/>
    </g>
    <g>
        <path style="opacity:1" fill="#6c9945"
              d="M 1139.5,247.5 C 1139.41,248.496 1139.75,249.329 1140.5,250C 1141.83,250.333 1143.17,250.667 1144.5,251C 1143.33,251.419 1142.33,252.085 1141.5,253C 1143.65,259.347 1144.98,265.847 1145.5,272.5C 1144.68,275.641 1144.18,278.975 1144,282.5C 1143.25,283.126 1142.42,283.626 1141.5,284C 1142.31,284.308 1142.97,284.808 1143.5,285.5C 1142.49,289.683 1140.99,293.683 1139,297.5C 1138.5,301.152 1138.33,304.818 1138.5,308.5C 1138.72,309.675 1138.39,310.675 1137.5,311.5C 1136.89,311.376 1136.56,311.043 1136.5,310.5C 1136.67,306.154 1136.5,301.821 1136,297.5C 1134.34,294.673 1133.17,291.673 1132.5,288.5C 1131.68,286.545 1131.51,284.545 1132,282.5C 1135.05,280.877 1134.55,280.21 1130.5,280.5C 1130.27,273.124 1130.61,265.791 1131.5,258.5C 1132.87,258.657 1134.21,258.49 1135.5,258C 1134.09,257.632 1133.09,256.799 1132.5,255.5C 1133.64,251.888 1135.31,248.554 1137.5,245.5C 1138.18,246.243 1138.85,246.909 1139.5,247.5 Z"/>
    </g>
    <g>
        <path style="opacity:1" fill="#497523"
              d="M 285.5,273.5 C 286.975,278.4 287.975,283.4 288.5,288.5C 287.987,292.879 287.153,297.213 286,301.5C 285.191,307.749 285.358,313.916 286.5,320C 285.833,320.333 285.167,320.667 284.5,321C 285.5,321.833 286.5,322.667 287.5,323.5C 287.535,325.443 287.202,327.443 286.5,329.5C 285.644,333.57 284.477,337.57 283,341.5C 282.5,352.495 282.333,363.495 282.5,374.5C 284.833,374.5 287.167,374.5 289.5,374.5C 291.607,375.468 293.941,375.802 296.5,375.5C 297.5,375.5 298.5,375.5 299.5,375.5C 294.992,376.68 290.325,376.68 285.5,375.5C 283.465,376.204 281.465,376.871 279.5,377.5C 279.5,376.5 279.5,375.5 279.5,374.5C 277.801,374.66 276.134,374.494 274.5,374C 276.382,373.802 278.048,373.302 279.5,372.5C 279.666,362.161 279.5,351.828 279,341.5C 278.59,340.099 278.09,338.766 277.5,337.5C 276.947,331.938 275.947,326.438 274.5,321C 274.354,318.812 275.354,317.479 277.5,317C 275.866,316.506 274.199,316.34 272.5,316.5C 272.784,314.585 272.451,312.919 271.5,311.5C 271.316,303.125 271.816,294.792 273,286.5C 274.44,284.954 276.273,284.121 278.5,284C 277.437,282.812 276.103,282.312 274.5,282.5C 274.894,278.653 275.894,274.986 277.5,271.5C 277.5,271.167 277.5,270.833 277.5,270.5C 278.375,268.432 279.541,266.432 281,264.5C 282.546,267.592 284.046,270.592 285.5,273.5 Z"/>
    </g>
    <g>
        <path style="opacity:1" fill="#cde9fe"
              d="M 277.5,270.5 C 277.5,270.833 277.5,271.167 277.5,271.5C 276.5,271.5 275.5,271.5 274.5,271.5C 274.296,274.518 273.963,277.518 273.5,280.5C 181.446,291.222 90.1127,306.222 -0.5,325.5C -0.5,321.5 -0.5,317.5 -0.5,313.5C 6.60173,310.389 13.9351,307.889 21.5,306C 106.773,293.674 192.106,281.841 277.5,270.5 Z"/>
    </g>
    <g>
        <path style="opacity:1" fill="#c0e4fb"
              d="M 1275.5,284.5 C 1253.21,282.292 1230.88,281.125 1208.5,281C 1197.8,283.018 1188.46,287.685 1180.5,295C 1176.52,297.576 1172.19,299.076 1167.5,299.5C 1165.61,293.792 1164.95,287.792 1165.5,281.5C 1202.83,279.723 1240.16,278.056 1277.5,276.5C 1277.87,279.533 1277.2,282.2 1275.5,284.5 Z"/>
    </g>
    <g>
        <path style="opacity:1" fill="#d8edfe"
              d="M 277.5,271.5 C 275.894,274.986 274.894,278.653 274.5,282.5C 276.103,282.312 277.437,282.812 278.5,284C 276.273,284.121 274.44,284.954 273,286.5C 271.816,294.792 271.316,303.125 271.5,311.5C 270.784,311.783 269.951,312.116 269,312.5C 267.342,315.309 266.175,318.309 265.5,321.5C 265.818,322.647 266.484,323.481 267.5,324C 266.552,324.483 265.552,324.649 264.5,324.5C 188.542,328.61 112.542,332.277 36.5,335.5C 24.1567,336.01 11.8234,336.677 -0.5,337.5C -0.5,333.5 -0.5,329.5 -0.5,325.5C 90.1127,306.222 181.446,291.222 273.5,280.5C 273.963,277.518 274.296,274.518 274.5,271.5C 275.5,271.5 276.5,271.5 277.5,271.5 Z"/>
    </g>
    <g>
        <path style="opacity:1" fill="#6d9946"
              d="M 295.5,277.5 C 303.555,291.829 306.222,307.162 303.5,323.5C 302.4,324.558 301.066,325.392 299.5,326C 300.728,326.779 301.728,327.779 302.5,329C 301.852,330.44 301.519,331.94 301.5,333.5C 298.42,338.685 296.753,344.351 296.5,350.5C 296.5,358.833 296.5,367.167 296.5,375.5C 293.941,375.802 291.607,375.468 289.5,374.5C 290.833,374.5 292.167,374.5 293.5,374.5C 293.666,364.161 293.5,353.828 293,343.5C 291.004,338.521 288.837,333.855 286.5,329.5C 287.202,327.443 287.535,325.443 287.5,323.5C 286.5,322.667 285.5,321.833 284.5,321C 285.167,320.667 285.833,320.333 286.5,320C 285.358,313.916 285.191,307.749 286,301.5C 287.153,297.213 287.987,292.879 288.5,288.5C 290.287,284.925 292.121,281.259 294,277.5C 294.69,276.262 295.19,276.262 295.5,277.5 Z"/>
    </g>
    <g>
        <path style="opacity:1" fill="#c4e4f5"
              d="M 1154.5,263.5 C 1156.56,268.141 1158.72,272.808 1161,277.5C 1161.8,285.579 1161.63,293.579 1160.5,301.5C 1156.8,302.008 1153.14,302.674 1149.5,303.5C 1149.33,294.161 1149.5,284.827 1150,275.5C 1152,271.67 1153.5,267.67 1154.5,263.5 Z"/>
    </g>
    <g>
        <path style="opacity:1" fill="#4d7e2e"
              d="M 1275.5,284.5 C 1276.83,284.5 1278.17,284.5 1279.5,284.5C 1279.5,422.167 1279.5,559.833 1279.5,697.5C 1278.83,697.167 1278.17,696.833 1277.5,696.5C 1277.5,573.167 1277.5,449.833 1277.5,326.5C 1277.5,314.167 1277.5,301.833 1277.5,289.5C 1254.89,287.126 1232.22,285.959 1209.5,286C 1203.54,287.148 1197.87,289.148 1192.5,292C 1187.83,295.333 1183.17,298.667 1178.5,302C 1173.9,303.484 1169.23,304.65 1164.5,305.5C 1164.5,303.833 1164.5,302.167 1164.5,300.5C 1165.39,299.89 1166.39,299.557 1167.5,299.5C 1172.19,299.076 1176.52,297.576 1180.5,295C 1188.46,287.685 1197.8,283.018 1208.5,281C 1230.88,281.125 1253.21,282.292 1275.5,284.5 Z"/>
    </g>
    <g>
        <path style="opacity:1" fill="#c0e4fe"
              d="M 1132.5,288.5 C 1133.17,291.673 1134.34,294.673 1136,297.5C 1136.5,301.821 1136.67,306.154 1136.5,310.5C 1129.15,313.86 1122.81,318.693 1117.5,325C 1115.33,326.586 1113,327.92 1110.5,329C 1099.39,330.277 1088.72,333.11 1078.5,337.5C 1015.75,337.49 952.746,337.49 889.5,337.5C 889.822,331.642 889.489,325.975 888.5,320.5C 886.757,312.779 884.091,305.279 880.5,298C 879.668,297.312 879.002,297.479 878.5,298.5C 877.045,301.755 875.378,304.755 873.5,307.5C 873.309,303.738 872.642,300.071 871.5,296.5C 955.414,291.838 1039.41,287.504 1123.5,283.5C 1125.5,283.833 1127.5,284.167 1129.5,284.5C 1129.81,286.483 1130.81,287.816 1132.5,288.5 Z"/>
    </g>
    <g>
        <path style="opacity:1" fill="#71962e"
              d="M 1277.5,326.5 C 1271.18,324.679 1264.85,322.846 1258.5,321C 1248.73,318.722 1239.06,319.055 1229.5,322C 1215.89,329.759 1201.55,335.759 1186.5,340C 1162.63,344.727 1138.63,348.727 1114.5,352C 1084.77,360.7 1055.77,371.367 1027.5,384C 1003.33,393.083 978.333,397.083 952.5,396C 941.654,396.836 933.154,401.67 927,410.5C 920.141,424.08 913.474,437.747 907,451.5C 895.159,465.644 880.325,475.478 862.5,481C 838.775,489.02 814.775,496.02 790.5,502C 802.287,507.227 814.287,511.894 826.5,516C 829.833,516.667 833.167,516.667 836.5,516C 872.457,503.571 906.123,507.904 937.5,529C 949.833,539.333 962.167,549.667 974.5,560C 990.909,570.874 1008.24,580.207 1026.5,588C 1028.09,589.046 1029.59,590.213 1031,591.5C 1030.52,588.84 1029.69,586.174 1028.5,583.5C 1028.83,583.167 1029.17,582.833 1029.5,582.5C 1054.63,597.134 1079.63,611.968 1104.5,627C 1105.76,627.982 1107.09,628.315 1108.5,628C 1107.25,626.506 1107.25,625.006 1108.5,623.5C 1134.63,638.066 1160.63,652.9 1186.5,668C 1191.83,672 1197.17,676 1202.5,680C 1211.77,691.27 1221.77,701.936 1232.5,712C 1246.64,722.906 1261.31,733.073 1276.5,742.5C 1277.5,727.181 1277.83,711.848 1277.5,696.5C 1278.17,696.833 1278.83,697.167 1279.5,697.5C 1279.5,720.5 1279.5,743.5 1279.5,766.5C 1277.5,766.5 1275.5,766.5 1273.5,766.5C 1175.31,677.302 1064.31,607.469 940.5,557C 873.402,530.058 804.068,511.225 732.5,500.5C 750.685,498.037 769.018,495.537 787.5,493C 806.872,488.146 824.539,479.813 840.5,468C 848.5,460.667 856.5,453.333 864.5,446C 876.162,439.838 887.496,433.171 898.5,426C 908.5,414.667 918.5,403.333 928.5,392C 932.007,389.746 935.673,387.746 939.5,386C 953.454,384.758 967.454,384.091 981.5,384C 989.038,383.226 996.372,381.559 1003.5,379C 1031.64,367.729 1058.97,354.729 1085.5,340C 1094.29,337.171 1103.29,335.171 1112.5,334C 1118.37,331.14 1123.37,327.14 1127.5,322C 1137.83,313.65 1149.17,308.483 1161.5,306.5C 1161.28,307.675 1161.61,308.675 1162.5,309.5C 1164.11,308.68 1164.78,307.346 1164.5,305.5C 1169.23,304.65 1173.9,303.484 1178.5,302C 1183.17,298.667 1187.83,295.333 1192.5,292C 1197.87,289.148 1203.54,287.148 1209.5,286C 1232.22,285.959 1254.89,287.126 1277.5,289.5C 1277.5,301.833 1277.5,314.167 1277.5,326.5 Z"/>
    </g>
    <g>
        <path style="opacity:1" fill="#c3e6f8"
              d="M 1145.5,272.5 C 1146.11,273.391 1146.44,274.391 1146.5,275.5C 1146.83,285.522 1146.5,295.522 1145.5,305.5C 1143.03,306.32 1140.69,307.32 1138.5,308.5C 1138.33,304.818 1138.5,301.152 1139,297.5C 1140.99,293.683 1142.49,289.683 1143.5,285.5C 1142.97,284.808 1142.31,284.308 1141.5,284C 1142.42,283.626 1143.25,283.126 1144,282.5C 1144.18,278.975 1144.68,275.641 1145.5,272.5 Z"/>
    </g>
    <g>
        <path style="opacity:1" fill="#497625"
              d="M 871.5,296.5 C 872.642,300.071 873.309,303.738 873.5,307.5C 873.879,308.806 874.212,310.139 874.5,311.5C 873.137,312.893 872.304,314.559 872,316.5C 871.798,323.55 871.298,330.55 870.5,337.5C 871.5,338.333 872.5,339.167 873.5,340C 872.594,341.699 872.261,343.533 872.5,345.5C 868.846,355.101 867.513,365.101 868.5,375.5C 871.833,375.5 875.167,375.5 878.5,375.5C 878.5,377.167 878.5,378.833 878.5,380.5C 875.193,381.051 871.86,381.384 868.5,381.5C 868.5,384.167 868.5,386.833 868.5,389.5C 867.5,389.5 866.5,389.5 865.5,389.5C 865.5,387.167 865.5,384.833 865.5,382.5C 863.052,381.527 860.385,381.194 857.5,381.5C 857.216,379.585 857.549,377.919 858.5,376.5C 860.833,376.5 863.167,376.5 865.5,376.5C 865.764,369.11 865.43,361.777 864.5,354.5C 863.288,348.308 861.955,342.142 860.5,336C 864.554,334.059 864.22,333.225 859.5,333.5C 859.768,331.901 859.434,330.568 858.5,329.5C 858.335,321.138 858.668,312.805 859.5,304.5C 861.199,304.66 862.866,304.494 864.5,304C 862.323,302.814 861.323,300.981 861.5,298.5C 862.509,294.148 864.342,290.148 867,286.5C 868.789,289.741 870.289,293.074 871.5,296.5 Z"/>
    </g>
    <g>
        <path style="opacity:1" fill="#c1e5fe"
              d="M 861.5,298.5 C 861.323,300.981 862.323,302.814 864.5,304C 862.866,304.494 861.199,304.66 859.5,304.5C 858.668,312.805 858.335,321.138 858.5,329.5C 857.636,329.702 856.636,330.036 855.5,330.5C 854.864,332.78 853.864,334.78 852.5,336.5C 796.402,337.163 740.402,337.829 684.5,338.5C 677.785,335.738 670.785,334.071 663.5,333.5C 663.5,332.167 663.5,330.833 663.5,329.5C 664.468,327.393 664.802,325.059 664.5,322.5C 658.87,321.479 653.204,321.313 647.5,322C 652.846,322.768 658.179,323.601 663.5,324.5C 662.167,324.833 660.833,325.167 659.5,325.5C 637.653,323.59 615.819,321.59 594,319.5C 591.125,319.001 590.958,318.335 593.5,317.5C 610.764,319.84 628.097,321.006 645.5,321C 628.673,319.473 611.84,317.973 595,316.5C 593.236,316.544 591.569,316.878 590,317.5C 589.502,320.817 589.335,324.15 589.5,327.5C 582.825,327.334 576.158,327.5 569.5,328C 565.381,328.644 561.715,330.144 558.5,332.5C 555.262,333.738 552.262,335.404 549.5,337.5C 466.833,337.5 384.167,337.5 301.5,337.5C 301.5,336.167 301.5,334.833 301.5,333.5C 301.519,331.94 301.852,330.44 302.5,329C 301.728,327.779 300.728,326.779 299.5,326C 301.066,325.392 302.4,324.558 303.5,323.5C 481.436,314.601 659.436,305.768 837.5,297C 845.766,295.918 853.766,296.418 861.5,298.5 Z"/>
    </g>
    <g>
        <path style="opacity:1" fill="#6d9a47"
              d="M 888.5,320.5 C 888.877,327.257 888.377,333.924 887,340.5C 885.933,341.191 884.766,341.691 883.5,342C 884.728,342.779 885.728,343.779 886.5,345C 885.256,348.899 883.923,352.733 882.5,356.5C 881.194,362.599 881.194,368.599 882.5,374.5C 881.659,376.379 881.325,378.379 881.5,380.5C 881.5,382.167 881.5,383.833 881.5,385.5C 881.189,386.478 880.522,387.145 879.5,387.5C 878.526,385.257 878.192,382.924 878.5,380.5C 878.5,378.833 878.5,377.167 878.5,375.5C 878.666,369.824 878.499,364.157 878,358.5C 876.044,354.107 874.211,349.774 872.5,345.5C 872.261,343.533 872.594,341.699 873.5,340C 872.5,339.167 871.5,338.333 870.5,337.5C 871.298,330.55 871.798,323.55 872,316.5C 872.304,314.559 873.137,312.893 874.5,311.5C 874.212,310.139 873.879,308.806 873.5,307.5C 875.378,304.755 877.045,301.755 878.5,298.5C 879.002,297.479 879.668,297.312 880.5,298C 884.091,305.279 886.757,312.779 888.5,320.5 Z"/>
    </g>
    <g>
        <path style="opacity:1" fill="#4c7d2e"
              d="M 1146.5,275.5 C 1147.33,285.325 1147.83,295.325 1148,305.5C 1148.28,304.584 1148.78,303.918 1149.5,303.5C 1153.14,302.674 1156.8,302.008 1160.5,301.5C 1161.45,302.919 1161.78,304.585 1161.5,306.5C 1149.17,308.483 1137.83,313.65 1127.5,322C 1123.37,327.14 1118.37,331.14 1112.5,334C 1103.29,335.171 1094.29,337.171 1085.5,340C 1058.97,354.729 1031.64,367.729 1003.5,379C 996.372,381.559 989.038,383.226 981.5,384C 967.454,384.091 953.454,384.758 939.5,386C 935.673,387.746 932.007,389.746 928.5,392C 918.5,403.333 908.5,414.667 898.5,426C 887.496,433.171 876.162,439.838 864.5,446C 856.5,453.333 848.5,460.667 840.5,468C 824.539,479.813 806.872,488.146 787.5,493C 769.018,495.537 750.685,498.037 732.5,500.5C 725.983,499.856 719.649,498.856 713.5,497.5C 719.156,496.505 724.822,495.338 730.5,494C 749.592,492.826 768.592,490.826 787.5,488C 806.263,483.118 823.263,474.785 838.5,463C 847.203,454.629 856.203,446.629 865.5,439C 877.552,433.56 888.719,426.727 899,418.5C 907.087,407.742 915.92,397.576 925.5,388C 927.388,386.606 929.388,385.44 931.5,384.5C 932.627,383.878 933.627,383.045 934.5,382C 926.662,378.276 918.662,374.943 910.5,372C 902.191,369.825 895.191,371.825 889.5,378C 887.091,379.707 884.425,380.54 881.5,380.5C 881.325,378.379 881.659,376.379 882.5,374.5C 887.12,371.184 892.12,368.351 897.5,366C 902.204,365.352 906.871,365.519 911.5,366.5C 921.924,370.366 932.258,374.532 942.5,379C 965.877,381.825 988.544,379.158 1010.5,371C 1033.87,361.148 1056.54,349.981 1078.5,337.5C 1088.72,333.11 1099.39,330.277 1110.5,329C 1113,327.92 1115.33,326.586 1117.5,325C 1122.81,318.693 1129.15,313.86 1136.5,310.5C 1136.56,311.043 1136.89,311.376 1137.5,311.5C 1138.39,310.675 1138.72,309.675 1138.5,308.5C 1140.69,307.32 1143.03,306.32 1145.5,305.5C 1146.5,295.522 1146.83,285.522 1146.5,275.5 Z"/>
    </g>
    <g>
        <path style="opacity:1" fill="#6d9947"
              d="M 271.5,311.5 C 272.451,312.919 272.784,314.585 272.5,316.5C 274.199,316.34 275.866,316.506 277.5,317C 275.354,317.479 274.354,318.812 274.5,321C 275.947,326.438 276.947,331.938 277.5,337.5C 276.677,340.977 276.177,344.644 276,348.5C 275.25,349.126 274.416,349.626 273.5,350C 274.516,350.519 275.182,351.353 275.5,352.5C 274.631,355.941 273.464,359.274 272,362.5C 271.502,365.817 271.335,369.15 271.5,372.5C 271.366,374.292 271.699,375.958 272.5,377.5C 268.2,377.245 264.2,376.245 260.5,374.5C 263.206,374.575 265.873,374.908 268.5,375.5C 268.5,374.167 268.5,372.833 268.5,371.5C 267.68,364.024 266.013,356.691 263.5,349.5C 264.855,348.325 264.688,347.325 263,346.5C 262.501,341.177 262.334,335.844 262.5,330.5C 263.285,328.626 263.952,326.626 264.5,324.5C 265.552,324.649 266.552,324.483 267.5,324C 266.484,323.481 265.818,322.647 265.5,321.5C 266.175,318.309 267.342,315.309 269,312.5C 269.951,312.116 270.784,311.783 271.5,311.5 Z"/>
    </g>
    <g>
        <path style="opacity:1" fill="#a08f6b"
              d="M 663.5,329.5 C 663.167,329.5 662.833,329.5 662.5,329.5C 662.5,328.5 662.5,327.5 662.5,326.5C 640.484,325.118 618.484,323.451 596.5,321.5C 594.833,321.833 593.167,322.167 591.5,322.5C 592.376,323.251 593.376,323.751 594.5,324C 615.348,325.52 636.014,327.353 656.5,329.5C 655.833,329.5 655.5,329.833 655.5,330.5C 636.028,328.58 616.528,326.913 597,325.5C 594.39,325.533 592.223,326.2 590.5,327.5C 590.167,327.5 589.833,327.5 589.5,327.5C 589.335,324.15 589.502,320.817 590,317.5C 591.569,316.878 593.236,316.544 595,316.5C 611.84,317.973 628.673,319.473 645.5,321C 628.097,321.006 610.764,319.84 593.5,317.5C 590.958,318.335 591.125,319.001 594,319.5C 615.819,321.59 637.653,323.59 659.5,325.5C 660.833,325.167 662.167,324.833 663.5,324.5C 658.179,323.601 652.846,322.768 647.5,322C 653.204,321.313 658.87,321.479 664.5,322.5C 664.802,325.059 664.468,327.393 663.5,329.5 Z"/>
    </g>
    <g>
        <path style="opacity:1" fill="#77a42e"
              d="M 1277.5,326.5 C 1277.5,449.833 1277.5,573.167 1277.5,696.5C 1277.83,711.848 1277.5,727.181 1276.5,742.5C 1261.31,733.073 1246.64,722.906 1232.5,712C 1221.77,701.936 1211.77,691.27 1202.5,680C 1197.17,676 1191.83,672 1186.5,668C 1160.63,652.9 1134.63,638.066 1108.5,623.5C 1107.25,625.006 1107.25,626.506 1108.5,628C 1107.09,628.315 1105.76,627.982 1104.5,627C 1079.63,611.968 1054.63,597.134 1029.5,582.5C 1029.17,582.833 1028.83,583.167 1028.5,583.5C 1029.69,586.174 1030.52,588.84 1031,591.5C 1029.59,590.213 1028.09,589.046 1026.5,588C 1008.24,580.207 990.909,570.874 974.5,560C 962.167,549.667 949.833,539.333 937.5,529C 906.123,507.904 872.457,503.571 836.5,516C 833.167,516.667 829.833,516.667 826.5,516C 814.287,511.894 802.287,507.227 790.5,502C 814.775,496.02 838.775,489.02 862.5,481C 880.325,475.478 895.159,465.644 907,451.5C 913.474,437.747 920.141,424.08 927,410.5C 933.154,401.67 941.654,396.836 952.5,396C 978.333,397.083 1003.33,393.083 1027.5,384C 1055.77,371.367 1084.77,360.7 1114.5,352C 1138.63,348.727 1162.63,344.727 1186.5,340C 1201.55,335.759 1215.89,329.759 1229.5,322C 1239.06,319.055 1248.73,318.722 1258.5,321C 1264.85,322.846 1271.18,324.679 1277.5,326.5 Z"/>
    </g>
    <g>
        <path style="opacity:1" fill="#c1e5fe"
              d="M 264.5,324.5 C 263.952,326.626 263.285,328.626 262.5,330.5C 261.532,332.607 261.198,334.941 261.5,337.5C 182.833,337.667 104.166,337.5 25.5,337C 29.3563,336.823 33.023,336.323 36.5,335.5C 112.542,332.277 188.542,328.61 264.5,324.5 Z"/>
    </g>
    <g>
        <path style="opacity:1" fill="#c3e9f7"
              d="M 662.5,329.5 C 660.5,329.5 658.5,329.5 656.5,329.5C 636.014,327.353 615.348,325.52 594.5,324C 593.376,323.751 592.376,323.251 591.5,322.5C 593.167,322.167 594.833,321.833 596.5,321.5C 618.484,323.451 640.484,325.118 662.5,326.5C 662.5,327.5 662.5,328.5 662.5,329.5 Z"/>
    </g>
    <g>
        <path style="opacity:1" fill="#c2e9f5"
              d="M 655.5,330.5 C 657.833,330.5 660.167,330.5 662.5,330.5C 662.5,331.5 662.5,332.5 662.5,333.5C 638.49,331.61 614.49,329.61 590.5,327.5C 592.223,326.2 594.39,325.533 597,325.5C 616.528,326.913 636.028,328.58 655.5,330.5 Z"/>
    </g>
    <g>
        <path style="opacity:1" fill="#f8f2ee"
              d="M 688.5,341.5 C 690.027,341.427 691.027,342.094 691.5,343.5C 693.962,346.464 696.629,349.297 699.5,352C 698.226,352.977 698.226,353.811 699.5,354.5C 702.556,360.501 704.723,366.834 706,373.5C 706.333,382.833 706.667,392.167 707,401.5C 708.706,402.308 709.539,403.641 709.5,405.5C 706.833,405.5 704.167,405.5 701.5,405.5C 690.841,404.723 680.174,404.056 669.5,403.5C 668.833,403.5 668.167,403.5 667.5,403.5C 662.402,402.043 657.069,401.376 651.5,401.5C 643.517,400.834 635.517,400.501 627.5,400.5C 616.371,398.845 605.037,397.845 593.5,397.5C 576.703,395.457 559.703,394.123 542.5,393.5C 538.664,392.622 534.664,391.956 530.5,391.5C 530.5,390.167 530.5,388.833 530.5,387.5C 531.675,387.719 532.675,387.386 533.5,386.5C 534.374,384.253 534.708,381.92 534.5,379.5C 536.482,371.276 538.482,362.943 540.5,354.5C 540.66,352.847 541.326,351.514 542.5,350.5C 544.326,348.853 545.66,346.853 546.5,344.5C 546.5,342.5 546.5,340.5 546.5,338.5C 547.791,338.737 548.791,338.404 549.5,337.5C 552.262,335.404 555.262,333.738 558.5,332.5C 569.176,328.78 580.176,327.613 591.5,329C 618.503,331.292 645.503,333.625 672.5,336C 678.033,337.344 683.366,339.177 688.5,341.5 Z"/>
    </g>
    <g>
        <path style="opacity:1" fill="#a5844f"
              d="M 589.5,327.5 C 589.833,327.5 590.167,327.5 590.5,327.5C 614.49,329.61 638.49,331.61 662.5,333.5C 662.5,332.5 662.5,331.5 662.5,330.5C 660.167,330.5 657.833,330.5 655.5,330.5C 655.5,329.833 655.833,329.5 656.5,329.5C 658.5,329.5 660.5,329.5 662.5,329.5C 662.833,329.5 663.167,329.5 663.5,329.5C 663.5,330.833 663.5,332.167 663.5,333.5C 670.785,334.071 677.785,335.738 684.5,338.5C 686.23,339.026 687.564,340.026 688.5,341.5C 683.366,339.177 678.033,337.344 672.5,336C 645.503,333.625 618.503,331.292 591.5,329C 580.176,327.613 569.176,328.78 558.5,332.5C 561.715,330.144 565.381,328.644 569.5,328C 576.158,327.5 582.825,327.334 589.5,327.5 Z"/>
    </g>
    <g>
        <path style="opacity:1" fill="#6c9945"
              d="M 858.5,329.5 C 859.434,330.568 859.768,331.901 859.5,333.5C 864.22,333.225 864.554,334.059 860.5,336C 861.955,342.142 863.288,348.308 864.5,354.5C 863.683,356.831 863.016,359.331 862.5,362C 862.095,362.945 861.428,363.612 860.5,364C 861.167,364.667 861.833,365.333 862.5,366C 861.241,369.544 859.907,373.044 858.5,376.5C 857.549,377.919 857.216,379.585 857.5,381.5C 860.385,381.194 863.052,381.527 865.5,382.5C 862.833,382.5 860.167,382.5 857.5,382.5C 856.833,391.833 856.167,391.833 855.5,382.5C 855.5,380.833 855.5,379.167 855.5,377.5C 852.833,377.5 850.167,377.5 847.5,377.5C 849.833,376.833 852.167,376.167 854.5,375.5C 853.035,371.976 852.035,368.309 851.5,364.5C 851.577,363.25 852.244,362.417 853.5,362C 852.552,361.517 851.552,361.351 850.5,361.5C 850.334,355.491 850.501,349.491 851,343.5C 852.098,342.033 853.598,341.199 855.5,341C 853.561,340.092 852.561,338.592 852.5,336.5C 853.864,334.78 854.864,332.78 855.5,330.5C 856.636,330.036 857.636,329.702 858.5,329.5 Z"/>
    </g>
    <g>
        <path style="opacity:1" fill="#cae8fd"
              d="M 262.5,330.5 C 262.334,335.844 262.501,341.177 263,346.5C 264.688,347.325 264.855,348.325 263.5,349.5C 266.013,356.691 267.68,364.024 268.5,371.5C 248.746,366.811 229.079,361.644 209.5,356C 167.23,346.687 124.896,346.187 82.5,354.5C 82.7911,353.351 83.6244,352.684 85,352.5C 87.5,352 90,351.5 92.5,351C 61.477,351.027 30.477,350.86 -0.5,350.5C -0.5,346.167 -0.5,341.833 -0.5,337.5C 11.8234,336.677 24.1567,336.01 36.5,335.5C 33.023,336.323 29.3563,336.823 25.5,337C 104.166,337.5 182.833,337.667 261.5,337.5C 261.198,334.941 261.532,332.607 262.5,330.5 Z"/>
    </g>
    <g>
        <path style="opacity:1" fill="#cde8fd"
              d="M 301.5,333.5 C 301.5,334.833 301.5,336.167 301.5,337.5C 384.167,337.5 466.833,337.5 549.5,337.5C 548.791,338.404 547.791,338.737 546.5,338.5C 546.5,340.5 546.5,342.5 546.5,344.5C 544.178,345.802 542.845,347.802 542.5,350.5C 541.326,351.514 540.66,352.847 540.5,354.5C 539.13,356.25 538.13,358.25 537.5,360.5C 536.939,357.96 537.605,355.46 539.5,353C 458.502,351.879 377.502,351.046 296.5,350.5C 296.753,344.351 298.42,338.685 301.5,333.5 Z"/>
    </g>
    <g>
        <path style="opacity:1" fill="#cce8fd"
              d="M 852.5,336.5 C 852.561,338.592 853.561,340.092 855.5,341C 853.598,341.199 852.098,342.033 851,343.5C 850.501,349.491 850.334,355.491 850.5,361.5C 851.552,361.351 852.552,361.517 853.5,362C 852.244,362.417 851.577,363.25 851.5,364.5C 849.182,362.912 848.515,360.912 849.5,358.5C 849.182,357.353 848.516,356.519 847.5,356C 805.83,355.706 764.164,355.206 722.5,354.5C 715.833,354.833 709.167,355.167 702.5,355.5C 703.167,356.833 703.833,358.167 704.5,359.5C 704.376,360.107 704.043,360.44 703.5,360.5C 702.649,358.118 701.316,356.118 699.5,354.5C 700.412,353.262 700.579,351.928 700,350.5C 697.564,347.553 694.731,345.22 691.5,343.5C 691.027,342.094 690.027,341.427 688.5,341.5C 687.564,340.026 686.23,339.026 684.5,338.5C 740.402,337.829 796.402,337.163 852.5,336.5 Z"/>
    </g>
    <g>
        <path style="opacity:1" fill="#cde8fd"
              d="M 888.5,320.5 C 889.489,325.975 889.822,331.642 889.5,337.5C 952.746,337.49 1015.75,337.49 1078.5,337.5C 1056.54,349.981 1033.87,361.148 1010.5,371C 988.544,379.158 965.877,381.825 942.5,379C 932.258,374.532 921.924,370.366 911.5,366.5C 911.917,365.876 912.584,365.543 913.5,365.5C 917.167,366.833 920.833,368.167 924.5,369.5C 960.153,366.279 995.819,363.112 1031.5,360C 1033.95,359.275 1036.28,358.275 1038.5,357C 986.501,356.5 934.501,356.333 882.5,356.5C 883.923,352.733 885.256,348.899 886.5,345C 885.728,343.779 884.728,342.779 883.5,342C 884.766,341.691 885.933,341.191 887,340.5C 888.377,333.924 888.877,327.257 888.5,320.5 Z"/>
    </g>
    <g>
        <path style="opacity:1" fill="#90926e"
              d="M 605.5,345.5 C 592.509,344.519 579.509,344.019 566.5,344C 562.069,343.866 559.069,345.699 557.5,349.5C 557.97,344.032 560.97,341.365 566.5,341.5C 579.692,342.434 592.692,343.767 605.5,345.5 Z"/>
    </g>
    <g>
        <path style="opacity:1" fill="#a78957"
              d="M 691.5,343.5 C 694.731,345.22 697.564,347.553 700,350.5C 700.579,351.928 700.412,353.262 699.5,354.5C 698.226,353.811 698.226,352.977 699.5,352C 696.629,349.297 693.962,346.464 691.5,343.5 Z"/>
    </g>
    <g>
        <path style="opacity:1" fill="#ad8d5b"
              d="M 546.5,344.5 C 545.66,346.853 544.326,348.853 542.5,350.5C 542.845,347.802 544.178,345.802 546.5,344.5 Z"/>
    </g>
    <g>
        <path style="opacity:1" fill="#7aa497"
              d="M 605.5,345.5 C 610.833,345.5 616.167,345.5 621.5,345.5C 621.5,346.833 621.5,348.167 621.5,349.5C 621.167,349.5 620.833,349.5 620.5,349.5C 620.03,348.307 619.03,347.64 617.5,347.5C 616.5,347.667 615.5,347.833 614.5,348C 616.256,348.202 617.922,348.702 619.5,349.5C 617.167,349.833 614.833,350.167 612.5,350.5C 602.193,349.369 591.86,348.703 581.5,348.5C 576.728,347.746 571.894,347.079 567,346.5C 565.93,346.528 565.097,346.861 564.5,347.5C 562.983,347.511 561.816,348.177 561,349.5C 560.454,352.379 559.621,355.046 558.5,357.5C 558.631,356.761 558.464,356.094 558,355.5C 557.667,356.5 557.333,357.5 557,358.5C 556.956,355.525 557.123,352.525 557.5,349.5C 559.069,345.699 562.069,343.866 566.5,344C 579.509,344.019 592.509,344.519 605.5,345.5 Z"/>
    </g>
    <g>
        <path style="opacity:1" fill="#b9ddd6"
              d="M 581.5,348.5 C 588.168,363.336 595.501,377.836 603.5,392C 602.906,392.464 602.239,392.631 601.5,392.5C 594.317,392.232 587.317,391.565 580.5,390.5C 582.288,390.785 583.955,390.452 585.5,389.5C 577.977,375.788 570.977,361.788 564.5,347.5C 565.097,346.861 565.93,346.528 567,346.5C 571.894,347.079 576.728,347.746 581.5,348.5 Z"/>
    </g>
    <g>
        <path style="opacity:1" fill="#a08e5d"
              d="M 647.5,348.5 C 658.051,348.745 668.385,349.745 678.5,351.5C 667.935,351.435 657.601,350.435 647.5,348.5 Z"/>
    </g>
    <g>
        <path style="opacity:1" fill="#9ed0c5"
              d="M 564.5,347.5 C 570.977,361.788 577.977,375.788 585.5,389.5C 583.955,390.452 582.288,390.785 580.5,390.5C 572.147,390.383 563.813,389.883 555.5,389C 553.677,388.003 552.01,386.836 550.5,385.5C 550.421,382.729 550.921,380.063 552,377.5C 552.359,380.544 553.026,380.878 554,378.5C 555.504,373.523 555.837,368.523 555,363.5C 555.667,359.5 556.333,359.5 557,363.5C 557.813,361.564 558.313,359.564 558.5,357.5C 559.621,355.046 560.454,352.379 561,349.5C 561.816,348.177 562.983,347.511 564.5,347.5 Z"/>
    </g>
    <g>
        <path style="opacity:1" fill="#9fd1c6"
              d="M 620.5,349.5 C 619.398,362.825 618.398,376.158 617.5,389.5C 612.889,393.151 607.556,394.484 601.5,393.5C 601.5,393.167 601.5,392.833 601.5,392.5C 602.239,392.631 602.906,392.464 603.5,392C 595.501,377.836 588.168,363.336 581.5,348.5C 591.86,348.703 602.193,349.369 612.5,350.5C 614.833,350.167 617.167,349.833 619.5,349.5C 617.922,348.702 616.256,348.202 614.5,348C 615.5,347.833 616.5,347.667 617.5,347.5C 619.03,347.64 620.03,348.307 620.5,349.5 Z"/>
    </g>
    <g>
        <path style="opacity:1" fill="#4d7d2f"
              d="M 268.5,371.5 C 268.5,372.833 268.5,374.167 268.5,375.5C 265.873,374.908 263.206,374.575 260.5,374.5C 244.635,370.89 228.968,366.723 213.5,362C 164.702,350.424 116.035,350.757 67.5,363C 44.8888,370.146 22.2222,376.979 -0.5,383.5C -0.5,381.5 -0.5,379.5 -0.5,377.5C 27.0991,369.634 54.7658,361.968 82.5,354.5C 124.896,346.187 167.23,346.687 209.5,356C 229.079,361.644 248.746,366.811 268.5,371.5 Z"/>
    </g>
    <g>
        <path style="opacity:1" fill="#78a499"
              d="M 644.5,348.5 C 645.5,348.5 646.5,348.5 647.5,348.5C 657.601,350.435 667.935,351.435 678.5,351.5C 679.5,351.5 680.5,351.5 681.5,351.5C 684.042,352.039 686.208,353.372 688,355.5C 689.032,366.322 690.198,376.989 691.5,387.5C 692.634,389.966 692.801,392.633 692,395.5C 691.252,397.751 689.752,399.084 687.5,399.5C 688.54,386.188 688.04,372.854 686,359.5C 684.833,358.333 683.667,357.167 682.5,356C 674.187,355.117 665.853,354.617 657.5,354.5C 654.609,353.597 651.609,353.264 648.5,353.5C 647.5,353.5 646.5,353.5 645.5,353.5C 639.3,352.757 632.966,352.09 626.5,351.5C 626.5,350.167 626.5,348.833 626.5,347.5C 632.477,348.165 638.477,348.498 644.5,348.5 Z"/>
    </g>
    <g>
        <path style="opacity:1" fill="#c1e5fd"
              d="M -0.5,350.5 C 30.477,350.86 61.477,351.027 92.5,351C 90,351.5 87.5,352 85,352.5C 83.6244,352.684 82.7911,353.351 82.5,354.5C 54.7658,361.968 27.0991,369.634 -0.5,377.5C -0.5,368.5 -0.5,359.5 -0.5,350.5 Z"/>
    </g>
    <g>
        <path style="opacity:1" fill="#c3e6fc"
              d="M 286.5,329.5 C 288.837,333.855 291.004,338.521 293,343.5C 293.5,353.828 293.666,364.161 293.5,374.5C 292.167,374.5 290.833,374.5 289.5,374.5C 287.167,374.5 284.833,374.5 282.5,374.5C 282.333,363.495 282.5,352.495 283,341.5C 284.477,337.57 285.644,333.57 286.5,329.5 Z"/>
    </g>
    <g>
        <path style="opacity:1" fill="#c1e5fe"
              d="M 296.5,350.5 C 377.502,351.046 458.502,351.879 539.5,353C 537.605,355.46 536.939,357.96 537.5,360.5C 535.96,366.742 534.96,373.075 534.5,379.5C 533.743,382.428 532.41,385.094 530.5,387.5C 529.076,389.515 528.41,391.848 528.5,394.5C 527.01,401.084 526.01,407.75 525.5,414.5C 523.941,421.286 522.941,428.286 522.5,435.5C 489.508,408.343 451.842,390.843 409.5,383C 397.875,381.301 386.209,379.968 374.5,379C 349.456,378.332 324.456,377.165 299.5,375.5C 298.5,375.5 297.5,375.5 296.5,375.5C 296.5,367.167 296.5,358.833 296.5,350.5 Z"/>
    </g>
    <g>
        <path style="opacity:1" fill="#92824d"
              d="M 681.5,351.5 C 684.652,350.959 687.152,351.959 689,354.5C 690.606,365.428 691.44,376.428 691.5,387.5C 690.198,376.989 689.032,366.322 688,355.5C 686.208,353.372 684.042,352.039 681.5,351.5 Z"/>
    </g>
    <g>
        <path style="opacity:1" fill="#9fd2c7"
              d="M 626.5,351.5 C 632.966,352.09 639.3,352.757 645.5,353.5C 643.712,353.215 642.045,353.548 640.5,354.5C 647.821,368.805 654.821,383.139 661.5,397.5C 650.855,396.469 640.188,395.636 629.5,395C 627.677,394.003 626.01,392.836 624.5,391.5C 624.605,378.136 625.272,364.803 626.5,351.5 Z"/>
    </g>
    <g>
        <path style="opacity:1" fill="#c0e3f6"
              d="M 277.5,337.5 C 278.09,338.766 278.59,340.099 279,341.5C 279.5,351.828 279.666,362.161 279.5,372.5C 276.833,372.5 274.167,372.5 271.5,372.5C 271.335,369.15 271.502,365.817 272,362.5C 273.464,359.274 274.631,355.941 275.5,352.5C 275.182,351.353 274.516,350.519 273.5,350C 274.416,349.626 275.25,349.126 276,348.5C 276.177,344.644 276.677,340.977 277.5,337.5 Z"/>
    </g>
    <g>
        <path style="opacity:1" fill="#c5e4dd"
              d="M 645.5,353.5 C 653.247,368.308 660.247,382.974 666.5,397.5C 664.833,397.5 663.167,397.5 661.5,397.5C 654.821,383.139 647.821,368.805 640.5,354.5C 642.045,353.548 643.712,353.215 645.5,353.5 Z"/>
    </g>
    <g>
        <path style="opacity:1" fill="#72972f"
              d="M 260.5,374.5 C 264.2,376.245 268.2,377.245 272.5,377.5C 282.067,379.316 291.734,380.482 301.5,381C 334.223,381.691 366.889,383.357 399.5,386C 433.63,391.568 465.297,403.568 494.5,422C 503.658,428.331 512.658,434.831 521.5,441.5C 521.5,444.5 521.5,447.5 521.5,450.5C 520.532,452.607 520.198,454.941 520.5,457.5C 500.335,447.584 480.335,437.418 460.5,427C 426.309,412.751 390.642,407.085 353.5,410C 351.699,409.683 351.366,409.016 352.5,408C 357.193,405.951 361.859,403.951 366.5,402C 341.705,401.011 317.038,399.678 292.5,398C 267.32,393.497 242.32,388.497 217.5,383C 153.288,378.862 89.6217,382.862 26.5,395C 20.0532,396.4 13.7198,398.4 7.5,401C 6.97814,401.561 6.6448,402.228 6.5,403C 8.31716,406.157 10.1505,409.323 12,412.5C 12.4661,416.564 10.6328,419.231 6.5,420.5C 4.2178,421.223 1.88447,421.557 -0.5,421.5C -0.5,408.833 -0.5,396.167 -0.5,383.5C 22.2222,376.979 44.8888,370.146 67.5,363C 116.035,350.757 164.702,350.424 213.5,362C 228.968,366.723 244.635,370.89 260.5,374.5 Z"/>
    </g>
    <g>
        <path style="opacity:1" fill="#c6e4dd"
              d="M 648.5,353.5 C 651.609,353.264 654.609,353.597 657.5,354.5C 664.339,369.512 671.673,384.179 679.5,398.5C 676.5,398.5 673.5,398.5 670.5,398.5C 663.436,383.373 656.103,368.373 648.5,353.5 Z"/>
    </g>
    <g>
        <path style="opacity:1" fill="#9fd1c6"
              d="M 657.5,354.5 C 665.853,354.617 674.187,355.117 682.5,356C 683.667,357.167 684.833,358.333 686,359.5C 688.04,372.854 688.54,386.188 687.5,399.5C 684.615,399.806 681.948,399.473 679.5,398.5C 671.673,384.179 664.339,369.512 657.5,354.5 Z"/>
    </g>
    <g>
        <path style="opacity:1" fill="#a88b59"
              d="M 699.5,354.5 C 701.316,356.118 702.649,358.118 703.5,360.5C 706.91,368.113 708.243,376.113 707.5,384.5C 707.334,389.844 707.501,395.177 708,400.5C 710.016,401.955 710.849,403.955 710.5,406.5C 708.5,406.5 706.5,406.5 704.5,406.5C 703.5,406.5 702.5,406.5 701.5,406.5C 701.5,406.167 701.5,405.833 701.5,405.5C 704.167,405.5 706.833,405.5 709.5,405.5C 709.539,403.641 708.706,402.308 707,401.5C 706.667,392.167 706.333,382.833 706,373.5C 704.723,366.834 702.556,360.501 699.5,354.5 Z"/>
    </g>
    <g>
        <path style="opacity:1" fill="#c1e5fe"
              d="M 851.5,364.5 C 852.035,368.309 853.035,371.976 854.5,375.5C 805.493,378.367 756.493,381.367 707.5,384.5C 708.243,376.113 706.91,368.113 703.5,360.5C 704.043,360.44 704.376,360.107 704.5,359.5C 703.833,358.167 703.167,356.833 702.5,355.5C 709.167,355.167 715.833,354.833 722.5,354.5C 764.164,355.206 805.83,355.706 847.5,356C 848.516,356.519 849.182,357.353 849.5,358.5C 848.515,360.912 849.182,362.912 851.5,364.5 Z"/>
    </g>
    <g>
        <path style="opacity:1" fill="#aa8e5e"
              d="M 540.5,354.5 C 538.482,362.943 536.482,371.276 534.5,379.5C 534.96,373.075 535.96,366.742 537.5,360.5C 538.13,358.25 539.13,356.25 540.5,354.5 Z"/>
    </g>
    <g>
        <path style="opacity:1" fill="#c1e5fe"
              d="M 882.5,356.5 C 934.501,356.333 986.501,356.5 1038.5,357C 1036.28,358.275 1033.95,359.275 1031.5,360C 995.819,363.112 960.153,366.279 924.5,369.5C 920.833,368.167 917.167,366.833 913.5,365.5C 912.584,365.543 911.917,365.876 911.5,366.5C 906.871,365.519 902.204,365.352 897.5,366C 892.12,368.351 887.12,371.184 882.5,374.5C 881.194,368.599 881.194,362.599 882.5,356.5 Z"/>
    </g>
    <g>
        <path style="opacity:1" fill="#c6e7f9"
              d="M 872.5,345.5 C 874.211,349.774 876.044,354.107 878,358.5C 878.499,364.157 878.666,369.824 878.5,375.5C 875.167,375.5 871.833,375.5 868.5,375.5C 867.513,365.101 868.846,355.101 872.5,345.5 Z"/>
    </g>
    <g>
        <path style="opacity:1" fill="#998954"
              d="M 620.5,349.5 C 620.833,349.5 621.167,349.5 621.5,349.5C 620.667,362.162 619.834,374.829 619,387.5C 618.722,388.416 618.222,389.082 617.5,389.5C 618.398,376.158 619.398,362.825 620.5,349.5 Z"/>
    </g>
    <g>
        <path style="opacity:1" fill="#ac905b"
              d="M 644.5,348.5 C 638.477,348.498 632.477,348.165 626.5,347.5C 626.5,348.833 626.5,350.167 626.5,351.5C 625.272,364.803 624.605,378.136 624.5,391.5C 623.028,389.883 622.361,387.883 622.5,385.5C 623.922,372.528 624.922,359.528 625.5,346.5C 632.037,346.586 638.37,347.253 644.5,348.5 Z"/>
    </g>
    <g>
        <path style="opacity:1" fill="#c1e4f4"
              d="M 864.5,354.5 C 865.43,361.777 865.764,369.11 865.5,376.5C 863.167,376.5 860.833,376.5 858.5,376.5C 859.907,373.044 861.241,369.544 862.5,366C 861.833,365.333 861.167,364.667 860.5,364C 861.428,363.612 862.095,362.945 862.5,362C 863.016,359.331 863.683,356.831 864.5,354.5 Z"/>
    </g>
    <g>
        <path style="opacity:1" fill="#87987d"
              d="M 557.5,349.5 C 557.123,352.525 556.956,355.525 557,358.5C 557.333,357.5 557.667,356.5 558,355.5C 558.464,356.094 558.631,356.761 558.5,357.5C 558.313,359.564 557.813,361.564 557,363.5C 556.333,359.5 555.667,359.5 555,363.5C 555.837,368.523 555.504,373.523 554,378.5C 553.026,380.878 552.359,380.544 552,377.5C 550.921,380.063 550.421,382.729 550.5,385.5C 549.366,383.034 549.199,380.367 550,377.5C 552.528,368.045 555.028,358.711 557.5,349.5 Z"/>
    </g>
    <g>
        <path style="opacity:1" fill="#71962e"
              d="M 931.5,384.5 C 930.378,383.844 929.045,383.511 927.5,383.5C 912.167,384.224 896.834,384.89 881.5,385.5C 881.5,383.833 881.5,382.167 881.5,380.5C 884.425,380.54 887.091,379.707 889.5,378C 895.191,371.825 902.191,369.825 910.5,372C 918.662,374.943 926.662,378.276 934.5,382C 933.627,383.045 932.627,383.878 931.5,384.5 Z"/>
    </g>
    <g>
        <path style="opacity:1" fill="#a0d1c6"
              d="M 645.5,353.5 C 646.5,353.5 647.5,353.5 648.5,353.5C 656.103,368.373 663.436,383.373 670.5,398.5C 668.901,398.768 667.568,398.434 666.5,397.5C 660.247,382.974 653.247,368.308 645.5,353.5 Z"/>
    </g>
    <g>
        <path style="opacity:1" fill="#4d7c2e"
              d="M 847.5,377.5 C 850.167,377.5 852.833,377.5 855.5,377.5C 855.5,379.167 855.5,380.833 855.5,382.5C 832.771,383.521 810.104,385.354 787.5,388C 765.69,394.739 744.69,403.406 724.5,414C 720.244,417.045 716.077,420.212 712,423.5C 711.827,429.348 711.327,435.015 710.5,440.5C 710.5,432.5 710.5,424.5 710.5,416.5C 720.621,409.599 731.288,403.432 742.5,398C 755.167,393.333 767.833,388.667 780.5,384C 789.034,381.85 797.7,380.516 806.5,380C 820.155,378.901 833.822,378.068 847.5,377.5 Z"/>
    </g>
    <g>
        <path style="opacity:1" fill="#4d7d2f"
              d="M 271.5,372.5 C 274.167,372.5 276.833,372.5 279.5,372.5C 278.048,373.302 276.382,373.802 274.5,374C 276.134,374.494 277.801,374.66 279.5,374.5C 279.5,375.5 279.5,376.5 279.5,377.5C 281.465,376.871 283.465,376.204 285.5,375.5C 290.325,376.68 294.992,376.68 299.5,375.5C 324.456,377.165 349.456,378.332 374.5,379C 386.209,379.968 397.875,381.301 409.5,383C 451.842,390.843 489.508,408.343 522.5,435.5C 522.795,437.735 522.461,439.735 521.5,441.5C 512.658,434.831 503.658,428.331 494.5,422C 465.297,403.568 433.63,391.568 399.5,386C 366.889,383.357 334.223,381.691 301.5,381C 291.734,380.482 282.067,379.316 272.5,377.5C 271.699,375.958 271.366,374.292 271.5,372.5 Z"/>
    </g>
    <g>
        <path style="opacity:1" fill="#cbe8fa"
              d="M 854.5,375.5 C 852.167,376.167 849.833,376.833 847.5,377.5C 833.822,378.068 820.155,378.901 806.5,380C 797.7,380.516 789.034,381.85 780.5,384C 767.833,388.667 755.167,393.333 742.5,398C 731.288,403.432 720.621,409.599 710.5,416.5C 710.5,413.167 710.5,409.833 710.5,406.5C 710.849,403.955 710.016,401.955 708,400.5C 707.501,395.177 707.334,389.844 707.5,384.5C 756.493,381.367 805.493,378.367 854.5,375.5 Z"/>
    </g>
    <g>
        <path style="opacity:1" fill="#76a42f"
              d="M 520.5,457.5 C 520.826,466.349 520.493,475.016 519.5,483.5C 469.295,481.019 420.628,488.185 373.5,505C 357.011,513.078 340.677,521.411 324.5,530C 312.32,533.864 299.986,537.198 287.5,540C 279.064,543.05 270.731,546.384 262.5,550C 205.739,579.379 149.073,608.712 92.5,638C 86.8961,641.603 82.7294,646.437 80,652.5C 79.3934,655.202 79.5601,657.868 80.5,660.5C 80.2811,661.938 79.7811,663.271 79,664.5C 73.7882,667.241 68.2882,669.407 62.5,671C 61.6667,671.833 60.8333,672.667 60,673.5C 59.8097,677.076 58.643,680.242 56.5,683C 41.9226,682.741 30.0893,688.241 21,699.5C 17.2565,707.986 13.2565,716.319 9,724.5C 6.21852,727.462 3.05185,729.796 -0.5,731.5C -0.5,628.167 -0.5,524.833 -0.5,421.5C 1.88447,421.557 4.2178,421.223 6.5,420.5C 10.6328,419.231 12.4661,416.564 12,412.5C 10.1505,409.323 8.31716,406.157 6.5,403C 6.6448,402.228 6.97814,401.561 7.5,401C 13.7198,398.4 20.0532,396.4 26.5,395C 89.6217,382.862 153.288,378.862 217.5,383C 242.32,388.497 267.32,393.497 292.5,398C 317.038,399.678 341.705,401.011 366.5,402C 361.859,403.951 357.193,405.951 352.5,408C 351.366,409.016 351.699,409.683 353.5,410C 390.642,407.085 426.309,412.751 460.5,427C 480.335,437.418 500.335,447.584 520.5,457.5 Z"/>
    </g>
    <g>
        <path style="opacity:1" fill="#71962e"
              d="M 855.5,382.5 C 856.167,391.833 856.833,391.833 857.5,382.5C 860.167,382.5 862.833,382.5 865.5,382.5C 865.5,384.833 865.5,387.167 865.5,389.5C 858.549,391.154 851.549,392.654 844.5,394C 825.484,394.871 806.484,395.871 787.5,397C 772.967,400.219 760.3,406.885 749.5,417C 735.88,431.775 722.547,446.609 709.5,461.5C 709.999,454.51 710.332,447.51 710.5,440.5C 711.327,435.015 711.827,429.348 712,423.5C 716.077,420.212 720.244,417.045 724.5,414C 744.69,403.406 765.69,394.739 787.5,388C 810.104,385.354 832.771,383.521 855.5,382.5 Z"/>
    </g>
    <g>
        <path style="opacity:1" fill="#ac9062"
              d="M 534.5,379.5 C 534.708,381.92 534.374,384.253 533.5,386.5C 532.675,387.386 531.675,387.719 530.5,387.5C 532.41,385.094 533.743,382.428 534.5,379.5 Z"/>
    </g>
    <g>
        <path style="opacity:1" fill="#76a32e"
              d="M 878.5,380.5 C 878.192,382.924 878.526,385.257 879.5,387.5C 880.522,387.145 881.189,386.478 881.5,385.5C 896.834,384.89 912.167,384.224 927.5,383.5C 929.045,383.511 930.378,383.844 931.5,384.5C 929.388,385.44 927.388,386.606 925.5,388C 915.92,397.576 907.087,407.742 899,418.5C 888.719,426.727 877.552,433.56 865.5,439C 856.203,446.629 847.203,454.629 838.5,463C 823.263,474.785 806.263,483.118 787.5,488C 768.592,490.826 749.592,492.826 730.5,494C 724.822,495.338 719.156,496.505 713.5,497.5C 710.5,497.5 707.5,497.5 704.5,497.5C 704.5,497.167 704.5,496.833 704.5,496.5C 706.32,484.886 707.654,473.22 708.5,461.5C 708.833,461.5 709.167,461.5 709.5,461.5C 722.547,446.609 735.88,431.775 749.5,417C 760.3,406.885 772.967,400.219 787.5,397C 806.484,395.871 825.484,394.871 844.5,394C 851.549,392.654 858.549,391.154 865.5,389.5C 866.5,389.5 867.5,389.5 868.5,389.5C 868.5,386.833 868.5,384.167 868.5,381.5C 871.86,381.384 875.193,381.051 878.5,380.5 Z"/>
    </g>
    <g>
        <path style="opacity:1" fill="#9e864d"
              d="M 550.5,385.5 C 552.01,386.836 553.677,388.003 555.5,389C 563.813,389.883 572.147,390.383 580.5,390.5C 587.317,391.565 594.317,392.232 601.5,392.5C 601.5,392.833 601.5,393.167 601.5,393.5C 585.81,392.72 570.143,391.554 554.5,390C 552.249,389.252 550.916,387.752 550.5,385.5 Z"/>
    </g>
    <g>
        <path style="opacity:1" fill="#a97c2f"
              d="M 530.5,387.5 C 530.5,388.833 530.5,390.167 530.5,391.5C 534.664,391.956 538.664,392.622 542.5,393.5C 537.737,393.226 533.07,393.559 528.5,394.5C 528.41,391.848 529.076,389.515 530.5,387.5 Z"/>
    </g>
    <g>
        <path style="opacity:1" fill="#ad7a23"
              d="M 542.5,393.5 C 559.703,394.123 576.703,395.457 593.5,397.5C 576.297,396.869 559.297,395.536 542.5,393.5 Z"/>
    </g>
    <g>
        <path style="opacity:1" fill="#aa8b54"
              d="M 617.5,389.5 C 617.084,391.752 615.751,393.252 613.5,394C 609.311,394.812 605.311,394.645 601.5,393.5C 607.556,394.484 612.889,393.151 617.5,389.5 Z"/>
    </g>
    <g>
        <path style="opacity:1" fill="#f3bc18"
              d="M 542.5,393.5 C 559.297,395.536 576.297,396.869 593.5,397.5C 595.907,398.088 598.24,399.088 600.5,400.5C 608.86,400.806 617.86,400.806 627.5,400.5C 635.517,400.501 643.517,400.834 651.5,401.5C 656.553,403.26 661.886,403.927 667.5,403.5C 668.167,403.5 668.833,403.5 669.5,403.5C 679.961,405.151 690.628,406.151 701.5,406.5C 702.5,406.5 703.5,406.5 704.5,406.5C 705.919,407.451 707.585,407.784 709.5,407.5C 709.681,425.514 709.348,443.514 708.5,461.5C 707.654,473.22 706.32,484.886 704.5,496.5C 703.092,497.061 701.592,497.395 700,497.5C 640.835,492.691 581.668,487.857 522.5,483C 521.518,475.253 521.185,467.42 521.5,459.5C 523.621,444.735 524.955,429.735 525.5,414.5C 526.01,407.75 527.01,401.084 528.5,394.5C 533.07,393.559 537.737,393.226 542.5,393.5 Z"/>
    </g>
    <g>
        <path style="opacity:1" fill="#a7905d"
              d="M 624.5,391.5 C 626.01,392.836 627.677,394.003 629.5,395C 640.188,395.636 650.855,396.469 661.5,397.5C 663.167,397.5 664.833,397.5 666.5,397.5C 667.568,398.434 668.901,398.768 670.5,398.5C 673.5,398.5 676.5,398.5 679.5,398.5C 681.948,399.473 684.615,399.806 687.5,399.5C 685.696,400.162 683.696,400.495 681.5,400.5C 663.816,399.211 646.149,397.711 628.5,396C 626.249,395.252 624.916,393.752 624.5,391.5 Z"/>
    </g>
    <g>
        <path style="opacity:1" fill="#ca930f"
              d="M 593.5,397.5 C 605.037,397.845 616.371,398.845 627.5,400.5C 617.86,400.806 608.86,400.806 600.5,400.5C 598.24,399.088 595.907,398.088 593.5,397.5 Z"/>
    </g>
    <g>
        <path style="opacity:1" fill="#ab7e36"
              d="M 651.5,401.5 C 657.069,401.376 662.402,402.043 667.5,403.5C 661.886,403.927 656.553,403.26 651.5,401.5 Z"/>
    </g>
    <g>
        <path style="opacity:1" fill="#aa771a"
              d="M 669.5,403.5 C 680.174,404.056 690.841,404.723 701.5,405.5C 701.5,405.833 701.5,406.167 701.5,406.5C 690.628,406.151 679.961,405.151 669.5,403.5 Z"/>
    </g>
    <g>
        <path style="opacity:1" fill="#f7d46b"
              d="M 531.5,402.5 C 532.152,403.449 532.486,404.615 532.5,406C 531.096,427.534 529.263,449.034 527,470.5C 525.397,447.606 526.897,424.94 531.5,402.5 Z"/>
    </g>
    <g>
        <path style="opacity:1" fill="#c38807"
              d="M 704.5,406.5 C 706.5,406.5 708.5,406.5 710.5,406.5C 710.5,409.833 710.5,413.167 710.5,416.5C 710.5,424.5 710.5,432.5 710.5,440.5C 710.332,447.51 709.999,454.51 709.5,461.5C 709.167,461.5 708.833,461.5 708.5,461.5C 709.348,443.514 709.681,425.514 709.5,407.5C 707.585,407.784 705.919,407.451 704.5,406.5 Z"/>
    </g>
    <g>
        <path style="opacity:1" fill="#cd9518"
              d="M 525.5,414.5 C 524.955,429.735 523.621,444.735 521.5,459.5C 521.5,456.5 521.5,453.5 521.5,450.5C 521.5,447.5 521.5,444.5 521.5,441.5C 522.461,439.735 522.795,437.735 522.5,435.5C 522.941,428.286 523.941,421.286 525.5,414.5 Z"/>
    </g>
    <g>
        <path style="opacity:1" fill="#fbf9f8"
              d="M 598.5,457.5 C 606.804,458.495 615.137,459.161 623.5,459.5C 627.97,460.486 632.637,460.819 637.5,460.5C 637.347,466.845 637.014,473.178 636.5,479.5C 630.855,478.866 625.189,478.532 619.5,478.5C 609.197,477.28 598.864,476.28 588.5,475.5C 588.5,471.833 588.5,468.167 588.5,464.5C 589.468,462.393 589.802,460.059 589.5,457.5C 592.5,457.5 595.5,457.5 598.5,457.5 Z"/>
    </g>
    <g>
        <path style="opacity:1" fill="#b18237"
              d="M 623.5,459.5 C 628.5,459.5 633.5,459.5 638.5,459.5C 638.72,466.543 638.386,473.543 637.5,480.5C 631.301,480.348 625.301,479.682 619.5,478.5C 625.189,478.532 630.855,478.866 636.5,479.5C 637.014,473.178 637.347,466.845 637.5,460.5C 632.637,460.819 627.97,460.486 623.5,459.5 Z"/>
    </g>
    <g>
        <path style="opacity:1" fill="#a26f13"
              d="M 598.5,457.5 C 595.5,457.5 592.5,457.5 589.5,457.5C 589.802,460.059 589.468,462.393 588.5,464.5C 588.5,461.833 588.5,459.167 588.5,456.5C 592.042,456.187 595.375,456.521 598.5,457.5 Z"/>
    </g>
    <g>
        <path style="opacity:1" fill="#875702"
              d="M 542.5,468.5 C 539.364,465.365 535.697,464.698 531.5,466.5C 531.611,465.883 531.944,465.383 532.5,465C 535.167,464.333 537.833,464.333 540.5,465C 541.823,465.816 542.489,466.983 542.5,468.5 Z"/>
    </g>
    <g>
        <path style="opacity:1" fill="#dd1830"
              d="M 542.5,468.5 C 544.991,477.182 541.657,480.682 532.5,479C 527.72,475.008 527.387,470.841 531.5,466.5C 535.697,464.698 539.364,465.365 542.5,468.5 Z"/>
    </g>
    <g>
        <path style="opacity:1" fill="#7c5500"
              d="M 690.5,478.5 C 691.449,477.848 692.615,477.514 694,477.5C 696.008,477.307 697.508,477.974 698.5,479.5C 695.904,478.735 693.237,478.401 690.5,478.5 Z"/>
    </g>
    <g>
        <path style="opacity:1" fill="#dc192f"
              d="M 690.5,478.5 C 693.237,478.401 695.904,478.735 698.5,479.5C 703.257,486.318 701.59,490.651 693.5,492.5C 687.628,491.786 685.462,488.452 687,482.5C 687.498,480.456 688.665,479.122 690.5,478.5 Z"/>
    </g>
    <g>
        <path style="opacity:1" fill="#72972e"
              d="M 519.5,483.5 C 518.225,486.604 518.225,489.604 519.5,492.5C 519.427,494.027 520.094,495.027 521.5,495.5C 522.167,496.5 522.833,497.5 523.5,498.5C 415.198,511.997 313.865,545.997 219.5,600.5C 146.231,640.583 79.2309,689.417 18.5,747C 11.9043,753.09 5.9043,759.59 0.5,766.5C 0.166667,766.5 -0.166667,766.5 -0.5,766.5C -0.5,754.833 -0.5,743.167 -0.5,731.5C 3.05185,729.796 6.21852,727.462 9,724.5C 13.2565,716.319 17.2565,707.986 21,699.5C 30.0893,688.241 41.9226,682.741 56.5,683C 58.643,680.242 59.8097,677.076 60,673.5C 60.8333,672.667 61.6667,671.833 62.5,671C 68.2882,669.407 73.7882,667.241 79,664.5C 79.7811,663.271 80.2811,661.938 80.5,660.5C 79.5601,657.868 79.3934,655.202 80,652.5C 82.7294,646.437 86.8961,641.603 92.5,638C 149.073,608.712 205.739,579.379 262.5,550C 270.731,546.384 279.064,543.05 287.5,540C 299.986,537.198 312.32,533.864 324.5,530C 340.677,521.411 357.011,513.078 373.5,505C 420.628,488.185 469.295,481.019 519.5,483.5 Z"/>
    </g>
    <g>
        <path style="opacity:1" fill="#855504"
              d="M 521.5,450.5 C 521.5,453.5 521.5,456.5 521.5,459.5C 521.185,467.42 521.518,475.253 522.5,483C 581.668,487.857 640.835,492.691 700,497.5C 701.592,497.395 703.092,497.061 704.5,496.5C 704.5,496.833 704.5,497.167 704.5,497.5C 705.939,499.588 706.606,501.921 706.5,504.5C 705.833,505.167 705.167,505.833 704.5,506.5C 704.5,505.167 704.5,503.833 704.5,502.5C 685.55,500.381 666.55,499.214 647.5,499C 644.808,501.632 645.141,503.966 648.5,506C 663.695,506.931 678.861,508.098 694,509.5C 697.76,509.694 701.26,509.027 704.5,507.5C 703.5,508.833 702.5,510.167 701.5,511.5C 699.883,512.038 698.216,512.371 696.5,512.5C 690.131,512.653 683.797,512.32 677.5,511.5C 675.5,511.5 673.5,511.5 671.5,511.5C 656.018,509.747 640.351,508.413 624.5,507.5C 600.189,505.224 575.856,503.224 551.5,501.5C 549.5,501.5 547.5,501.5 545.5,501.5C 538.901,500.721 532.234,499.721 525.5,498.5C 524.833,498.5 524.167,498.5 523.5,498.5C 522.833,497.5 522.167,496.5 521.5,495.5C 537.199,496.447 552.865,497.78 568.5,499.5C 571.167,499.333 573.833,499.167 576.5,499C 577.982,496.408 577.648,494.075 575.5,492C 556.877,489.914 538.211,488.414 519.5,487.5C 519.5,489.167 519.5,490.833 519.5,492.5C 518.225,489.604 518.225,486.604 519.5,483.5C 520.493,475.016 520.826,466.349 520.5,457.5C 520.198,454.941 520.532,452.607 521.5,450.5 Z"/>
    </g>
    <g>
        <path style="opacity:1" fill="#a27539"
              d="M 521.5,495.5 C 520.094,495.027 519.427,494.027 519.5,492.5C 519.5,490.833 519.5,489.167 519.5,487.5C 538.211,488.414 556.877,489.914 575.5,492C 577.648,494.075 577.982,496.408 576.5,499C 573.833,499.167 571.167,499.333 568.5,499.5C 552.865,497.78 537.199,496.447 521.5,495.5 Z"/>
    </g>
    <g>
        <path style="opacity:1" fill="#394959"
              d="M 704.5,497.5 C 707.5,497.5 710.5,497.5 713.5,497.5C 719.649,498.856 725.983,499.856 732.5,500.5C 804.068,511.225 873.402,530.058 940.5,557C 1064.31,607.469 1175.31,677.302 1273.5,766.5C 1266.83,766.5 1260.17,766.5 1253.5,766.5C 1127.3,652.542 981.965,572.042 817.5,525C 794.538,519.895 771.538,514.895 748.5,510C 734.557,507.651 720.557,505.818 706.5,504.5C 706.606,501.921 705.939,499.588 704.5,497.5 Z"/>
    </g>
    <g>
        <path style="opacity:1" fill="#a27539"
              d="M 704.5,506.5 C 704.5,506.833 704.5,507.167 704.5,507.5C 701.26,509.027 697.76,509.694 694,509.5C 678.861,508.098 663.695,506.931 648.5,506C 645.141,503.966 644.808,501.632 647.5,499C 666.55,499.214 685.55,500.381 704.5,502.5C 704.5,503.833 704.5,505.167 704.5,506.5 Z"/>
    </g>
    <g>
        <path style="opacity:1" fill="#394858"
              d="M 523.5,498.5 C 524.167,498.5 524.833,498.5 525.5,498.5C 525.5,499.5 525.5,500.5 525.5,501.5C 523.901,501.232 522.568,501.566 521.5,502.5C 479.72,507.295 438.72,515.628 398.5,527.5C 354.995,539.038 312.995,554.538 272.5,574C 254.78,582.86 237.114,591.693 219.5,600.5C 313.865,545.997 415.198,511.997 523.5,498.5 Z"/>
    </g>
    <g>
        <path style="opacity:1" fill="#738187"
              d="M 551.5,501.5 C 575.856,503.224 600.189,505.224 624.5,507.5C 598.283,512.729 571.617,515.396 544.5,515.5C 544.5,513.5 544.5,511.5 544.5,509.5C 546.415,509.784 548.081,509.451 549.5,508.5C 550.117,508.389 550.617,508.056 551,507.5C 551.495,505.527 551.662,503.527 551.5,501.5 Z"/>
    </g>
    <g>
        <path style="opacity:1" fill="#503106"
              d="M 545.5,501.5 C 547.5,501.5 549.5,501.5 551.5,501.5C 551.662,503.527 551.495,505.527 551,507.5C 550.617,508.056 550.117,508.389 549.5,508.5C 548.167,508.5 546.833,508.5 545.5,508.5C 545.5,506.167 545.5,503.833 545.5,501.5 Z"/>
    </g>
    <g>
        <path style="opacity:1" fill="#738086"
              d="M 706.5,504.5 C 720.557,505.818 734.557,507.651 748.5,510C 771.538,514.895 794.538,519.895 817.5,525C 981.965,572.042 1127.3,652.542 1253.5,766.5C 1219.17,766.5 1184.83,766.5 1150.5,766.5C 1142.91,759.746 1135.75,752.412 1129,744.5C 1104.12,706.956 1073.29,675.456 1036.5,650C 1026.04,643.788 1016.04,637.122 1006.5,630C 989.965,620.565 972.965,611.898 955.5,604C 944.888,600.576 934.554,596.576 924.5,592C 920.335,589.284 916.002,586.951 911.5,585C 899.112,582.06 887.279,577.56 876,571.5C 871.927,571.227 868.427,569.727 865.5,567C 856.167,565.331 847.5,561.997 839.5,557C 837.167,556.667 834.833,556.333 832.5,556C 813.545,548.338 794.212,541.005 774.5,534C 773.167,533 771.833,532 770.5,531C 757.656,528.587 745.489,524.42 734,518.5C 733.667,518.833 733.333,519.167 733,519.5C 724.181,516.887 715.348,514.221 706.5,511.5C 704.997,512.052 703.331,512.052 701.5,511.5C 702.5,510.167 703.5,508.833 704.5,507.5C 704.5,507.167 704.5,506.833 704.5,506.5C 705.167,505.833 705.833,505.167 706.5,504.5 Z"/>
    </g>
    <g>
        <path style="opacity:1" fill="#828f95"
              d="M 521.5,502.5 C 522.833,502.5 524.167,502.5 525.5,502.5C 524.593,510.818 524.427,519.151 525,527.5C 526.045,528.373 526.878,529.373 527.5,530.5C 515.115,530.38 503.115,532.38 491.5,536.5C 490.246,538.259 490.579,539.759 492.5,541C 498.655,543.082 504.988,544.416 511.5,545C 525.282,546.643 538.948,547.81 552.5,548.5C 548.131,547.923 544.131,548.757 540.5,551C 535.667,556.5 530.833,562 526,567.5C 525.135,569.888 525.968,571.388 528.5,572C 539.5,572.667 550.5,572.667 561.5,572C 566.194,563.471 572.194,555.971 579.5,549.5C 613.922,549.878 648.255,548.378 682.5,545C 689.394,544.185 696.061,542.519 702.5,540C 703.731,538.817 703.731,537.651 702.5,536.5C 700.271,535.423 697.937,534.756 695.5,534.5C 695.365,527.138 695.698,519.804 696.5,512.5C 698.216,512.371 699.883,512.038 701.5,511.5C 703.331,512.052 704.997,512.052 706.5,511.5C 715.348,514.221 724.181,516.887 733,519.5C 733.333,519.167 733.667,518.833 734,518.5C 745.489,524.42 757.656,528.587 770.5,531C 771.833,532 773.167,533 774.5,534C 794.212,541.005 813.545,548.338 832.5,556C 834.833,556.333 837.167,556.667 839.5,557C 847.5,561.997 856.167,565.331 865.5,567C 868.427,569.727 871.927,571.227 876,571.5C 887.279,577.56 899.112,582.06 911.5,585C 916.002,586.951 920.335,589.284 924.5,592C 934.554,596.576 944.888,600.576 955.5,604C 972.965,611.898 989.965,620.565 1006.5,630C 1016.04,637.122 1026.04,643.788 1036.5,650C 1073.29,675.456 1104.12,706.956 1129,744.5C 1135.75,752.412 1142.91,759.746 1150.5,766.5C 808.167,766.5 465.833,766.5 123.5,766.5C 88.9976,765.833 54.331,765.167 19.5,764.5C 41.9726,753.101 63.3059,739.934 83.5,725C 117.762,697.37 151.429,669.036 184.5,640C 248.196,589.653 318.863,552.82 396.5,529.5C 397.713,529.253 398.38,528.586 398.5,527.5C 438.72,515.628 479.72,507.295 521.5,502.5 Z"/>
    </g>
    <g>
        <path style="opacity:1" fill="#839095"
              d="M 624.5,507.5 C 640.351,508.413 656.018,509.747 671.5,511.5C 671.337,513.857 671.503,516.19 672,518.5C 673.356,519.38 674.856,519.714 676.5,519.5C 676.815,523.371 676.482,527.038 675.5,530.5C 631.204,527.457 586.871,526.79 542.5,528.5C 543.051,524.027 543.717,519.693 544.5,515.5C 571.617,515.396 598.283,512.729 624.5,507.5 Z"/>
    </g>
    <g>
        <path style="opacity:1" fill="#50330c"
              d="M 671.5,511.5 C 673.5,511.5 675.5,511.5 677.5,511.5C 677.806,514.385 677.473,517.052 676.5,519.5C 674.856,519.714 673.356,519.38 672,518.5C 671.503,516.19 671.337,513.857 671.5,511.5 Z"/>
    </g>
    <g>
        <path style="opacity:1" fill="#5f5f5e"
              d="M 525.5,498.5 C 532.234,499.721 538.901,500.721 545.5,501.5C 545.5,503.833 545.5,506.167 545.5,508.5C 546.833,508.5 548.167,508.5 549.5,508.5C 548.081,509.451 546.415,509.784 544.5,509.5C 544.5,511.5 544.5,513.5 544.5,515.5C 543.717,519.693 543.051,524.027 542.5,528.5C 541.711,528.783 541.044,529.283 540.5,530C 536.179,530.499 531.846,530.666 527.5,530.5C 526.878,529.373 526.045,528.373 525,527.5C 524.427,519.151 524.593,510.818 525.5,502.5C 524.167,502.5 522.833,502.5 521.5,502.5C 522.568,501.566 523.901,501.232 525.5,501.5C 525.5,500.5 525.5,499.5 525.5,498.5 Z"/>
    </g>
    <g>
        <path style="opacity:1" fill="#3a4a59"
              d="M 675.5,530.5 C 674.448,536.913 677.115,540.413 683.5,541C 689.838,542.671 693.838,540.505 695.5,534.5C 697.937,534.756 700.271,535.423 702.5,536.5C 703.731,537.651 703.731,538.817 702.5,540C 696.061,542.519 689.394,544.185 682.5,545C 648.255,548.378 613.922,549.878 579.5,549.5C 570.485,549.499 561.485,549.166 552.5,548.5C 538.948,547.81 525.282,546.643 511.5,545C 504.988,544.416 498.655,543.082 492.5,541C 490.579,539.759 490.246,538.259 491.5,536.5C 503.115,532.38 515.115,530.38 527.5,530.5C 531.846,530.666 536.179,530.499 540.5,530C 541.044,529.283 541.711,528.783 542.5,528.5C 586.871,526.79 631.204,527.457 675.5,530.5 Z"/>
    </g>
    <g>
        <path style="opacity:1" fill="#5f5f5f"
              d="M 677.5,511.5 C 683.797,512.32 690.131,512.653 696.5,512.5C 695.698,519.804 695.365,527.138 695.5,534.5C 693.838,540.505 689.838,542.671 683.5,541C 677.115,540.413 674.448,536.913 675.5,530.5C 676.482,527.038 676.815,523.371 676.5,519.5C 677.473,517.052 677.806,514.385 677.5,511.5 Z"/>
    </g>
    <g>
        <path style="opacity:1" fill="#f4ce42"
              d="M 552.5,548.5 C 561.485,549.166 570.485,549.499 579.5,549.5C 572.194,555.971 566.194,563.471 561.5,572C 550.5,572.667 539.5,572.667 528.5,572C 525.968,571.388 525.135,569.888 526,567.5C 530.833,562 535.667,556.5 540.5,551C 544.131,548.757 548.131,547.923 552.5,548.5 Z"/>
    </g>
    <g>
        <path style="opacity:1" fill="#728085"
              d="M 398.5,527.5 C 398.38,528.586 397.713,529.253 396.5,529.5C 318.863,552.82 248.196,589.653 184.5,640C 151.429,669.036 117.762,697.37 83.5,725C 63.3059,739.934 41.9726,753.101 19.5,764.5C 54.331,765.167 88.9976,765.833 123.5,766.5C 82.5,766.5 41.5,766.5 0.5,766.5C 5.9043,759.59 11.9043,753.09 18.5,747C 79.2309,689.417 146.231,640.583 219.5,600.5C 237.114,591.693 254.78,582.86 272.5,574C 312.995,554.538 354.995,539.038 398.5,527.5 Z"/>
    </g>
    <g>
        <path style="opacity:1" fill="#f4cd42"
              d="M 479.5,698.5 C 478.523,701.287 478.19,704.287 478.5,707.5C 460.167,707.5 441.833,707.5 423.5,707.5C 424.21,701.201 426.043,695.201 429,689.5C 443.213,665.96 458.213,642.96 474,620.5C 480.095,612.401 486.928,604.901 494.5,598C 512.5,597.333 530.5,597.333 548.5,598C 508.377,619.642 485.377,653.142 479.5,698.5 Z"/>
    </g>
    <g>
        <path style="opacity:1" fill="#dabf55"
              d="M 479.5,698.5 C 479.5,701.833 479.5,705.167 479.5,708.5C 460.659,708.83 441.993,708.497 423.5,707.5C 441.833,707.5 460.167,707.5 478.5,707.5C 478.19,704.287 478.523,701.287 479.5,698.5 Z"/>
    </g>
</svg>
