<?xml version="1.0" ?>
<svg baseProfile="full" height="767px" style="shape-rendering:geometricPrecision; text-rendering:geometricPrecision; image-rendering:optimizeQuality; fill-rule:evenodd; clip-rule:evenodd" version="1.1" width="1280px" xmlns="http://www.w3.org/2000/svg" xmlns:ev="http://www.w3.org/2001/xml-events" xmlns:xlink="http://www.w3.org/1999/xlink">
	<defs/>
	<path d="M 1277.5,326.5 C 1277.5,449.833 1277.5,573.167 1277.5,696.5 C 1277.83,711.848 1277.5,727.181 1276.5,742.5 C 1261.31,733.073 1246.64,722.906 1232.5,712.0 C 1221.77,701.936 1211.77,691.27 1202.5,680.0 C 1197.17,676.0 1191.83,672.0 1186.5,668.0 C 1160.63,652.9 1134.63,638.066 1108.5,623.5 C 1107.25,625.006 1107.25,626.506 1108.5,628.0 C 1107.09,628.315 1105.76,627.982 1104.5,627.0 C 1079.63,611.968 1054.63,597.134 1029.5,582.5 C 1029.17,582.833 1028.83,583.167 1028.5,583.5 C 1029.69,586.174 1030.52,588.84 1031.0,591.5 C 1029.59,590.213 1028.09,589.046 1026.5,588.0 C 1008.24,580.207 990.909,570.874 974.5,560.0 C 962.167,549.667 949.833,539.333 937.5,529.0 C 906.123,507.904 872.457,503.571 836.5,516.0 C 833.167,516.667 829.833,516.667 826.5,516.0 C 814.287,511.894 802.287,507.227 790.5,502.0 C 814.775,496.02 838.775,489.02 862.5,481.0 C 880.325,475.478 895.159,465.644 907.0,451.5 C 913.474,437.747 920.141,424.08 927.0,410.5 C 933.154,401.67 941.654,396.836 952.5,396.0 C 978.333,397.083 1003.33,393.083 1027.5,384.0 C 1055.77,371.367 1084.77,360.7 1114.5,352.0 C 1138.63,348.727 1162.63,344.727 1186.5,340.0 C 1201.55,335.759 1215.89,329.759 1229.5,322.0 C 1239.06,319.055 1248.73,318.722 1258.5,321.0 C 1264.85,322.846 1271.18,324.679 1277.5,326.5" data-order="35" fill="#77a42e" style="opacity:1"/>
</svg>
