<svg version="1.1" xmlns="http://www.w3.org/2000/svg" xmlns:xlink="http://www.w3.org/1999/xlink" width="1280" height="767" viewBox="0 0 1280 767"><path stroke="none" fill="#000000" fill-rule="evenodd" d="M1257.559492,584.702057C1255.475852,579.964731 1255.338148,578.651307 1256.018079,570.000000C1256.816806,559.837158 1258.824634,547.999953 1259.967191,546.717904C1260.350542,546.287751 1261.240220,547.862751 1261.944253,550.217904C1262.648287,552.573057 1264.485687,556.975000 1266.027364,560.000000C1269.688545,567.183780 1270.476997,572.672214 1268.984293,580.583246C1267.682132,587.484433 1267.525042,587.702235 1262.891198,589.031204C1259.932383,589.879781 1259.783755,589.759100 1257.559492,584.702057zM1266.630167,587.000000C1266.709021,587.000000 1267.319431,584.106876 1267.986634,580.570835C1269.450184,572.814317 1268.689542,567.175374 1265.280364,560.508182C1263.876490,557.762682 1262.178313,553.937682 1261.506637,552.008182L1260.285409,548.500000L1259.078156,554.000000C1258.414166,557.025000 1257.514382,563.982535 1257.078636,569.461190C1256.383146,578.205624 1256.524565,579.995538 1258.236392,584.114653C1260.137899,588.690190 1260.264784,588.784450 1263.336604,587.903463C1265.069210,587.406558 1266.551313,587.000000 1266.630167,587.000000zM386.572585,514.583730C388.262506,513.847837 392.864612,513.063828 396.799487,512.841488C403.556893,512.459660 405.000000,512.941892 405.000000,515.581787C405.000000,515.811804 400.162500,515.982386 394.250000,515.960858C384.390783,515.924960 383.754605,515.810846 386.572585,514.583730zM403.666608,514.333275C402.964528,513.631194 389.814920,513.851746 389.088887,514.577779C388.856666,514.810001 392.191667,515.000000 396.500000,515.000000C400.808333,515.000000 404.033307,514.699974 403.666608,514.333275zM391.102117,409.414362C389.233281,408.086463 386.457126,407.000000 384.932884,407.000000C380.320447,407.000000 369.689823,403.901907 366.517138,401.633081C364.876564,400.459886 361.953125,398.793132 360.020607,397.929182C356.731796,396.458890 356.293212,396.484466 353.167235,398.328837C350.137625,400.116351 348.651701,400.239432 337.163767,399.654420C328.949951,399.236139 320.986076,398.133530 314.500000,396.516590C309.000000,395.145473 301.934153,394.018329 298.798118,394.011825C295.028680,394.004008 290.114436,392.957007 284.298118,390.922538C279.459153,389.229933 273.407519,387.464167 270.850041,386.998614C261.008406,385.207079 249.729719,381.644676 247.171293,379.519620C245.702082,378.299278 242.475000,376.985388 240.000000,376.599866C233.791911,375.632853 231.000000,373.611532 231.000000,370.083936C231.000000,368.391176 231.647866,366.965368 232.579468,366.607879C234.408579,365.905983 240.178041,366.662147 247.960099,368.623713C250.963153,369.380671 255.392175,370.000000 257.802369,370.000000C260.636472,370.000000 263.062393,370.690518 264.669504,371.954672C266.841475,373.663145 268.789440,373.912127 280.135136,373.931441C287.274503,373.943594 293.652248,374.295412 294.307902,374.713260C294.963556,375.131108 307.966497,375.727810 323.203326,376.039265C346.170714,376.508740 351.213798,376.869706 352.703326,378.150774C355.940251,380.934687 358.305066,381.356844 375.000000,382.131089C394.975091,383.057454 405.206685,384.800558 405.579508,387.340762C405.926525,389.705139 407.927139,392.000000 409.641341,392.000000C410.409389,392.000000 413.567634,393.350000 416.659664,395.000000C419.751694,396.650000 423.493217,398.000000 424.974159,398.000000C426.607686,398.000000 429.207308,399.343507 431.583390,401.415709C434.988422,404.385266 435.263998,404.924559 433.693182,405.544500C432.699433,405.936696 429.124781,405.812843 425.749511,405.269272C420.382567,404.404951 418.648631,404.577016 411.928527,406.640777C407.702255,407.938676 403.684307,409.675460 402.999754,410.500297C401.124909,412.759346 395.026333,412.202710 391.102117,409.414362zM402.999754,409.500297C403.684307,408.675460 407.740482,406.926937 412.013475,405.614689C418.192524,403.717087 420.674614,403.401121 424.141276,404.070842C426.538574,404.533973 429.850000,404.914208 431.500000,404.915808L434.500000,404.918719L431.037774,401.959359C429.093565,400.297534 426.414966,399.000000 424.928543,399.000000C423.472690,399.000000 419.751694,397.650000 416.659664,396.000000C413.567634,394.350000 410.424033,393.000000 409.673883,393.000000C408.078608,393.000000 405.301567,390.147281 404.828755,388.022834C404.324622,385.757659 393.555800,383.991633 375.000000,383.131089C358.305066,382.356844 355.940251,381.934687 352.703326,379.150774C351.213798,377.869706 346.170714,377.508740 323.203326,377.039265C307.966497,376.727810 294.963556,376.131108 294.307902,375.713260C293.652248,375.295412 287.274503,374.943594 280.135136,374.931441C268.789440,374.912127 266.841475,374.663145 264.669504,372.954672C263.062393,371.690518 260.636472,371.000000 257.802369,371.000000C255.392175,371.000000 250.958913,370.358917 247.950677,369.575371C244.942441,368.791825 240.235396,368.004325 237.490578,367.825371C232.725246,367.514685 232.486011,367.621084 232.190068,370.182742C231.824798,373.344484 233.676547,374.613063 240.124756,375.618563C242.531140,375.993802 245.702082,377.299278 247.171293,378.519620C249.729719,380.644676 261.008406,384.207079 270.850041,385.998614C273.407519,386.464167 279.459153,388.229933 284.298118,389.922538C290.114436,391.957007 295.028680,393.004008 298.798118,393.011825C301.934153,393.018329 309.000000,394.145473 314.500000,395.516590C320.986076,397.133530 328.949951,398.236139 337.163767,398.654420C348.651701,399.239432 350.137625,399.116351 353.167235,397.328837C356.293212,395.484466 356.731796,395.458890 360.020607,396.929182C361.953125,397.793132 364.876564,399.459886 366.517138,400.633081C369.689823,402.901907 380.320447,406.000000 384.932884,406.000000C386.457126,406.000000 389.233281,407.086463 391.102117,408.414362C395.026333,411.202710 401.124909,411.759346 402.999754,409.500297zM601.000000,407.949907C595.775000,406.958156 589.700000,406.097764 587.500000,406.037926C583.519447,405.929658 583.512154,405.922181 586.000000,404.500000C587.375000,403.713979 589.708205,403.054925 591.184900,403.035435C592.661596,403.015946 595.136596,402.510308 596.684900,401.911794C604.452124,398.909295 611.549443,398.205368 620.590891,399.540750C625.464314,400.260533 629.687536,400.830032 629.975830,400.806302C630.264123,400.782573 633.875000,400.874144 638.000000,401.009794L645.500000,401.256431L639.871888,402.378215C634.348438,403.479139 634.283351,403.531715 636.371888,405.205462C638.428973,406.854004 638.266370,406.912991 631.500000,406.972826C627.650000,407.006872 621.350168,407.701914 617.500374,408.517364C613.650579,409.332814 610.500579,409.944445 610.500374,409.876545C610.500168,409.808645 606.225000,408.941658 601.000000,407.949907zM9.228942,406.095790C7.916706,404.320897 6.579801,400.140708 5.790884,395.345790C4.654041,388.436236 4.231508,387.461868 2.250000,387.180449C0.264106,386.898407 -0.000000,386.282159 -0.000000,381.930449C-0.000000,377.092876 0.057883,377.000000 3.072815,377.000000C6.715462,377.000000 23.035920,373.138653 24.564387,371.915190C25.149800,371.446596 29.946523,370.368406 35.223773,369.519212C40.501022,368.670018 46.716125,367.305798 49.035112,366.487612C51.354100,365.669425 54.957555,365.000000 57.042792,365.000000C60.267506,365.000000 61.348551,365.619295 64.276175,369.143769C67.170129,372.627710 68.127558,373.184801 70.288894,372.642340C72.656023,372.048229 72.785949,371.740442 71.929784,368.755173C70.524219,363.854252 70.693129,363.442128 74.881425,361.553470C79.114412,359.644659 79.538305,359.620179 92.000000,360.564876C98.529042,361.059831 101.891265,360.814050 106.500000,359.504919C109.954415,358.523678 118.299154,357.523820 126.168731,357.148232C133.686533,356.789434 140.140121,356.193212 140.510037,355.823296C141.621645,354.711688 140.028845,351.160879 138.203012,350.680277C137.266356,350.433726 140.550000,350.180385 145.500000,350.117296C154.223833,350.006110 161.592709,351.380014 180.000000,356.549715C183.025000,357.399289 191.053002,358.332407 197.840004,358.623311C204.714708,358.917975 212.018189,359.800776 214.330403,360.616573C216.613121,361.421963 221.072619,362.351817 224.240400,362.682915C227.408180,363.014014 229.988397,363.558307 229.974215,363.892456C229.960032,364.226605 227.700843,366.024725 224.953794,367.888278C220.933559,370.615539 219.756386,372.081840 218.919774,375.404328C217.442653,381.270504 214.020868,383.000000 203.891834,383.000000C196.728108,383.000000 195.278311,382.650364 189.166910,379.448904C182.877616,376.154255 181.814383,375.913496 174.444036,376.115054C160.149157,376.505976 138.805634,376.419794 122.191840,375.904067C110.338296,375.536108 104.875245,375.749109 102.191840,376.683857C100.161328,377.391174 97.375000,377.983212 96.000000,377.999497C94.625000,378.015782 91.475000,378.740823 89.000000,379.610698C86.115698,380.624429 82.817933,380.997934 79.815152,380.650976C74.748441,380.065540 70.728320,382.129906 69.519758,385.937749C69.081930,387.317223 65.563722,388.920670 56.412073,391.911664C49.531999,394.160249 42.604002,396.000000 41.016524,396.000000C37.241726,396.000000 33.028144,397.638548 30.348293,400.148585C29.164854,401.257033 26.239854,402.418302 23.848293,402.729182C21.087677,403.088036 18.300634,404.336048 16.215204,406.147209C14.408566,407.716244 12.580692,409.000000 12.153262,409.000000C11.725832,409.000000 10.409888,407.693106 9.228942,406.095790zM617.500374,407.517364C621.350168,406.701914 627.200000,406.013230 630.500000,405.986955C635.114344,405.950215 636.090993,405.701069 634.728968,404.908131C633.754900,404.341052 633.218957,403.454736 633.537985,402.938540C634.018051,402.161777 632.298273,401.615142 629.975830,401.806302C629.687536,401.830032 625.464314,401.260533 620.590891,400.540750C611.549443,399.205368 604.452124,399.909295 596.684900,402.911794C595.136596,403.510308 592.436596,404.052201 590.684900,404.116001C586.796701,404.257618 588.142673,404.634940 601.000000,407.007669C606.225000,407.971906 610.500168,408.814641 610.500374,408.880413C610.500579,408.946186 613.650579,408.332814 617.500374,407.517364zM16.215204,405.147209C18.300634,403.336048 21.087677,402.088036 23.848293,401.729182C26.239854,401.418302 29.164854,400.257033 30.348293,399.148585C33.000695,396.664257 37.233627,395.000000 40.899954,395.000000C42.423319,395.000000 48.686450,393.411431 54.818022,391.469847C64.552945,388.387249 66.521196,387.376871 70.342880,383.500347C74.593006,379.189233 74.860684,379.077339 79.609712,379.626645C82.829819,379.999105 86.036886,379.652128 89.000000,378.610698C91.475000,377.740823 94.625000,377.015782 96.000000,376.999497C97.375000,376.983212 100.161328,376.391174 102.191840,375.683857C104.875245,374.749109 110.338296,374.536108 122.191840,374.904067C138.805634,375.419794 160.149157,375.505976 174.444036,375.115054C181.814383,374.913496 182.877616,375.154255 189.166910,378.448904C195.302161,381.662857 196.711186,382.000000 204.008057,382.000000C213.637172,382.000000 216.504527,380.553761 218.017844,374.933732C218.774003,372.125571 220.262611,370.217533 223.525381,367.874388C225.984595,366.108315 227.884926,364.552484 227.748339,364.416987C227.611753,364.281490 225.475000,363.972110 223.000000,363.729477C220.525000,363.486844 217.242654,362.777045 215.705897,362.152146C211.236622,360.334782 209.161624,360.046346 197.000000,359.551920C190.675000,359.294779 183.025000,358.391537 180.000000,357.544714C163.866681,353.028330 153.876100,351.002470 147.730948,351.001295C141.020652,351.000011 140.967310,351.021570 141.585583,353.484969C142.466203,356.993635 139.182095,358.000000 126.851513,358.000000C119.935894,358.000000 114.304022,358.650095 108.666613,360.099111C102.049094,361.800049 98.887667,362.076121 92.000000,361.554527C79.912575,360.639162 78.437236,360.722536 74.966944,362.517094C72.193467,363.951314 71.938523,364.455479 72.543306,367.309958C72.915038,369.064481 73.282367,370.917529 73.359592,371.427843C73.436816,371.938156 72.217513,372.828346 70.650029,373.406042C68.006326,374.380379 67.535884,374.149260 64.150029,370.212717C61.096503,366.662555 59.907706,365.971565 56.875727,365.984517C54.882376,365.993033 51.354100,366.669425 49.035112,367.487612C46.716125,368.305798 40.501022,369.670018 35.223773,370.519212C29.946523,371.368406 25.149800,372.446596 24.564387,372.915190C23.148265,374.048727 6.836260,378.000000 3.572815,378.000000C1.264886,378.000000 1.000000,378.387410 1.000000,381.762872C1.000000,384.705959 1.490188,385.740800 3.250000,386.512872C5.117767,387.332305 5.720008,388.837247 6.795069,395.371641C7.961730,402.462794 10.294411,407.884179 12.215204,407.968575C12.608566,407.985859 14.408566,406.716244 16.215204,405.147209zM848.500000,394.590495C845.200000,393.923034 840.939824,392.555054 839.032943,391.550540C836.768094,390.357454 832.529329,389.551014 826.808741,389.224841C821.992312,388.950220 818.235057,388.428687 818.459286,388.065877C819.272497,386.750073 835.892149,388.904251 839.689718,390.817687C843.640807,392.808475 855.668981,395.322615 857.077507,394.452098C857.519180,394.179129 857.404089,392.589015 856.821748,390.918512C855.901991,388.280094 856.073986,387.546957 858.131474,385.335757C860.450060,382.843952 860.736866,382.799107 871.733920,383.208877L882.967841,383.627473L884.083585,380.246735C884.697244,378.387328 884.998573,376.665240 884.753205,376.419872C884.507836,376.174503 882.775487,376.597508 880.903540,377.359882C876.062694,379.331378 861.538219,380.252077 855.000000,379.001894C848.328193,377.726168 838.466324,379.682279 821.189244,385.708289C818.818328,386.535232 816.616421,386.949754 816.296116,386.629449C815.678600,386.011933 816.179904,385.801978 822.500000,384.031155C824.700000,383.414738 829.425000,382.057666 833.000000,381.015438C845.428641,377.392090 849.152455,376.883295 855.000000,378.009513C861.687728,379.297548 874.938317,378.436700 880.810756,376.332673C883.181672,375.483201 885.411743,375.078409 885.766469,375.433136C886.121196,375.787863 885.756356,377.973022 884.955713,380.289047L883.500000,384.500000L872.200011,384.140252C862.481455,383.830850 860.627119,384.027478 858.950011,385.545239C856.637637,387.637909 856.555689,388.624797 858.400662,392.160957C859.683733,394.620152 859.626399,394.865542 857.644501,395.397303C856.465025,395.713766 855.275000,395.934749 855.000000,395.888376C854.725000,395.842003 851.800000,395.257956 848.500000,394.590495zM981.814798,382.965158C979.787937,381.894610 977.848358,380.563655 977.504624,380.007481C976.604908,378.551711 981.365129,377.003403 986.815100,376.979160C989.391795,376.967698 994.425000,376.341429 998.000000,375.587450C1004.526939,374.210899 1006.525931,374.340009 1005.457295,376.069098C1005.140864,376.581094 1003.078940,377.000000 1000.875242,377.000000C998.671543,377.000000 995.943796,377.494896 994.813581,378.099768C993.683367,378.704641 993.000506,378.808198 993.296113,378.329897C993.882118,377.381719 979.371842,378.294824 978.399344,379.267323C977.498908,380.167759 985.578082,384.000000 988.376829,384.000000C990.146498,384.000000 991.114158,383.231104 991.837719,381.250000C992.390132,379.737500 992.877632,379.092084 992.921053,379.815741C993.227719,384.926668 988.218098,386.347253 981.814798,382.965158zM31.659700,380.783275C29.924491,379.474065 29.917594,379.313281 31.538911,377.967707C34.578254,375.445276 47.896898,377.503102 45.305289,380.094711C43.550200,381.849800 33.730027,382.345331 31.659700,380.783275zM43.000000,380.093652C45.251164,379.457034 45.033378,379.268007 40.811944,378.194532C37.436426,377.336166 35.346102,377.298113 33.345829,378.058616C27.755404,380.184092 36.306366,381.986579 43.000000,380.093652zM618.574206,373.332783C617.696103,371.044482 619.352222,369.659628 621.972364,370.491229C624.044700,371.148963 624.065481,371.270163 622.418039,373.090566C620.294969,375.436532 619.403058,375.492735 618.574206,373.332783zM622.000000,371.940983C622.000000,371.423442 621.325000,371.000000 620.500000,371.000000C618.953590,371.000000 618.513296,372.179963 619.639480,373.306147C620.438411,374.105078 622.000000,373.201961 622.000000,371.940983zM1265.222506,302.443296C1262.257454,300.366492 1262.384804,299.916452 1266.756833,297.021161C1268.815575,295.657800 1271.491013,293.520300 1272.702251,292.271161C1273.913489,291.022023 1276.050989,290.000000 1277.452251,290.000000C1279.873765,290.000000 1280.000000,290.272512 1280.000000,295.500000C1280.000000,300.214106 1279.731671,301.000000 1278.122124,301.000000C1277.089292,301.000000 1274.628746,301.675000 1272.654243,302.500000C1268.203679,304.359564 1267.955661,304.357672 1265.222506,302.443296zM1273.656203,301.250000C1278.982686,299.500932 1278.985528,299.497737 1278.992762,295.250000C1278.998676,291.777531 1278.661237,291.000000 1277.148314,291.000000C1276.129887,291.000000 1273.926171,292.237500 1272.251169,293.750000C1270.576166,295.262500 1267.968772,297.358030 1266.456959,298.406734C1263.851908,300.213788 1263.804245,300.383692 1265.545234,301.656734C1267.815954,303.317125 1267.279156,303.344044 1273.656203,301.250000zM1237.000000,284.000000C1235.793228,283.220124 1235.951379,283.027632 1237.809017,283.015313C1239.096585,283.006774 1239.844632,283.442374 1239.500000,284.000000C1238.756814,285.202500 1238.860736,285.202500 1237.000000,284.000000z"/></svg>