<?xml version="1.0" encoding="UTF-8"?>
<svg version="1.1" viewBox="0 0 1280 767" xmlns="http://www.w3.org/2000/svg">
<path d="m1257.6 584.7c-2.0836-4.7373-2.2213-6.0508-1.5414-14.702 0.79873-10.163 2.8066-22 3.9491-23.282 0.38335-0.43015 1.273 1.1448 1.9771 3.5 0.70403 2.3552 2.5414 6.7571 4.0831 9.7821 3.6612 7.1838 4.4496 12.672 2.9569 20.583-1.3022 6.9012-1.4593 7.119-6.0931 8.448-2.9588 0.84858-3.1074 0.7279-5.3317-4.3291zm9.0707 2.2979c0.078854 0 0.68926-2.8931 1.3565-6.4292 1.4636-7.7565 0.70291-13.395-2.7063-20.063-1.4039-2.7455-3.1021-6.5705-3.7737-8.5l-1.2212-3.5082-1.2073 5.5c-0.66399 3.025-1.5638 9.9825-1.9995 15.461-0.69549 8.7444-0.55407 10.534 1.1578 14.653 1.9015 4.5755 2.0284 4.6698 5.1002 3.7888 1.7326-0.4969 3.2147-0.90346 3.2936-0.90346zm-880.06-72.416c1.6899-0.73589 6.292-1.5199 10.227-1.7422 6.7574-0.38183 8.2005 0.1004 8.2005 2.7403 0 0.23002-4.8375 0.4006-10.75 0.37907-9.8592-0.035898-10.495-0.15001-7.6774-1.3771zm17.094-0.25046c-0.70208-0.70208-13.852-0.48153-14.578 0.2445-0.23222 0.23222 3.1028 0.42222 7.4111 0.42222s7.5333-0.30003 7.1666-0.66672zm-12.564-104.92c-1.8688-1.3279-4.645-2.4144-6.1692-2.4144-4.6124 0-15.243-3.0981-18.416-5.3669-1.6406-1.1732-4.564-2.8399-6.4965-3.7039-3.2888-1.4703-3.7274-1.4447-6.8534 0.39966-3.0296 1.7875-4.5155 1.9106-16.003 1.3256-8.2138-0.41828-16.178-1.5209-22.664-3.1378-5.5-1.3711-12.566-2.4983-15.702-2.5048-3.7694-0.007817-8.6837-1.0548-14.5-3.0893-4.839-1.6926-10.891-3.4584-13.448-3.9239-9.8416-1.7915-21.12-5.3539-23.679-7.479-1.4692-1.2203-4.6963-2.5342-7.1713-2.9198-6.2081-0.96701-9-2.9883-9-6.5159 0-1.6928 0.64787-3.1186 1.5795-3.4761 1.8291-0.7019 7.5986 0.054268 15.381 2.0158 3.0031 0.75696 7.4321 1.3763 9.8423 1.3763 2.8341 0 5.26 0.69052 6.8671 1.9547 2.172 1.7085 4.1199 1.9575 15.466 1.9768 7.1394 0.012153 13.517 0.36397 14.173 0.78182s13.659 1.0146 28.895 1.326c22.967 0.46948 28.01 0.83044 29.5 2.1115 3.2369 2.7839 5.6017 3.2061 22.297 3.9803 19.975 0.92636 30.207 2.6695 30.58 5.2097 0.34702 2.3644 2.3476 4.6592 4.0618 4.6592 0.76805 0 3.9263 1.35 7.0183 3s6.8336 3 8.3145 3c1.6335 0 4.2331 1.3435 6.6092 3.4157 3.405 2.9696 3.6806 3.5088 2.1098 4.1288-0.99375 0.3922-4.5684 0.26834-7.9437-0.27523-5.3669-0.86432-7.1009-0.69226-13.821 1.3715-4.2263 1.2979-8.2442 3.0347-8.9288 3.8595-1.8748 2.259-7.9734 1.7024-11.898-1.0859zm11.898 0.085935c0.68455-0.82484 4.7407-2.5734 9.0137-3.8856 6.179-1.8976 8.6611-2.2136 12.128-1.5438 2.3973 0.46313 5.7087 0.84337 7.3587 0.84497l3 0.002911-3.4622-2.9594c-1.9442-1.6618-4.6228-2.9594-6.1092-2.9594-1.4559 0-5.1768-1.35-8.2689-3s-6.2356-3-6.9858-3c-1.5953 0-4.3723-2.8527-4.8451-4.9772-0.50413-2.2652-11.273-4.0312-29.829-4.8917-16.695-0.77424-19.06-1.1964-22.297-3.9803-1.4895-1.2811-6.5326-1.642-29.5-2.1115-15.237-0.31146-28.24-0.90816-28.895-1.326s-7.0334-0.76967-14.173-0.78182c-11.346-0.019314-13.294-0.2683-15.466-1.9768-1.6071-1.2642-4.033-1.9547-6.8671-1.9547-2.4102 0-6.8435-0.64108-9.8517-1.4246s-7.7153-1.571-10.46-1.75c-4.7653-0.31069-5.0046-0.20429-5.3005 2.3574-0.36527 3.1617 1.4865 4.4303 7.9347 5.4358 2.4064 0.37524 5.5773 1.6807 7.0465 2.9011 2.5584 2.1251 13.837 5.6875 23.679 7.479 2.5575 0.46555 8.6091 2.2313 13.448 3.9239 5.8163 2.0345 10.731 3.0815 14.5 3.0893 3.136 0.006504 10.202 1.1336 15.702 2.5048 6.4861 1.6169 14.45 2.7195 22.664 3.1378 11.488 0.58501 12.974 0.46193 16.003-1.3256 3.126-1.8444 3.5646-1.8699 6.8534-0.39966 1.9325 0.86395 4.856 2.5307 6.4965 3.7039 3.1727 2.2688 13.803 5.3669 18.416 5.3669 1.5242 0 4.3004 1.0865 6.1692 2.4144 3.9242 2.7883 10.023 3.345 11.898 1.0859zm198-1.5504c-5.225-0.99175-11.3-1.8521-13.5-1.912-3.9806-0.10827-3.9878-0.11574-1.5-1.5379 1.375-0.78602 3.7082-1.4451 5.1849-1.4646 1.4767-0.019489 3.9517-0.52513 5.5-1.1236 7.7672-3.0025 14.865-3.7064 23.906-2.371 4.8734 0.71978 9.0966 1.2893 9.3849 1.2656 0.28829-0.023729 3.8992 0.067842 8.0242 0.20349l7.5 0.24664-5.6281 1.1218c-5.5234 1.1009-5.5885 1.1535-3.5 2.8272 2.0571 1.6485 1.8945 1.7075-4.8719 1.7674-3.85 0.034046-10.15 0.72909-14 1.5445-3.8498 0.81545-6.9998 1.4271-7 1.3592-2.06e-4 -0.0679-4.2754-0.93489-9.5004-1.9266zm-591.77-1.8541c-1.3122-1.7749-2.6491-5.9551-3.4381-10.75-1.1368-6.9096-1.5594-7.8839-3.5409-8.1653-1.9859-0.28204-2.25-0.89829-2.25-5.25-0-4.8376 0.057883-4.9304 3.0728-4.9304 3.6426 0 19.963-3.8613 21.492-5.0848 0.58541-0.46859 5.3821-1.5468 10.659-2.396 5.2772-0.84919 11.492-2.2134 13.811-3.0316 2.319-0.81819 5.9224-1.4876 8.0077-1.4876 3.2247 0 4.3058 0.6193 7.2334 4.1438 2.894 3.4839 3.8514 4.041 6.0127 3.4986 2.3671-0.59411 2.4971-0.9019 1.6409-3.8872-1.4056-4.9009-1.2367-5.313 2.9516-7.2017 4.233-1.9088 4.6569-1.9333 17.119-0.98859 6.529 0.49496 9.8913 0.24917 14.5-1.06 3.4544-0.98124 11.799-1.9811 19.669-2.3567 7.5178-0.3588 13.971-0.95502 14.341-1.3249 1.1116-1.1116-0.48119-4.6624-2.307-5.143-0.93666-0.24655 2.347-0.49989 7.297-0.56298 8.7238-0.11119 16.093 1.2627 34.5 6.4324 3.025 0.84957 11.053 1.7827 17.84 2.0736 6.8747 0.29466 14.178 1.1775 16.49 1.9933 2.2827 0.80539 6.7422 1.7352 9.91 2.0663 3.1678 0.3311 5.748 0.87539 5.7338 1.2095-0.014183 0.33415-2.2734 2.1323-5.0204 3.9958-4.0202 2.7273-5.1974 4.1936-6.034 7.516-1.4771 5.8662-4.8989 7.5957-15.028 7.5957-7.1637 0-8.6135-0.34964-14.725-3.5511-6.2893-3.2946-7.3525-3.5354-14.723-3.3338-14.295 0.39092-35.638 0.30474-52.252-0.21099-11.854-0.36796-17.317-0.15496-20 0.77979-2.0305 0.70732-4.8168 1.2994-6.1918 1.3156s-4.525 0.74133-7 1.6112c-2.8843 1.0137-6.1821 1.3872-9.1848 1.0403-5.0667-0.58544-9.0868 1.4789-10.295 5.2868-0.43783 1.3795-3.956 2.9829-13.108 5.9739-6.8801 2.2486-13.808 4.0883-15.396 4.0883-3.7748 0-7.9884 1.6385-10.668 4.1486-1.1834 1.1084-4.1084 2.2697-6.5 2.5806-2.7606 0.35885-5.5477 1.6069-7.6331 3.418-1.8066 1.569-3.6345 2.8528-4.0619 2.8528s-1.7434-1.3069-2.9243-2.9042zm608.27 1.4216c3.8498-0.81545 9.6996-1.5041 13-1.5304 4.6143-0.03674 5.591-0.28589 4.229-1.0788-0.97407-0.56708-1.51-1.4534-1.191-1.9696 0.48007-0.77676-1.2397-1.3234-3.5622-1.1322-0.28829 0.02373-4.5115-0.54577-9.3849-1.2656-9.0414-1.3354-16.139-0.63146-23.906 2.371-1.5483 0.59851-4.2483 1.1404-6 1.2042-3.8882 0.14162-2.5422 0.51894 10.315 2.8917 5.225 0.96424 9.5002 1.807 9.5004 1.8727 2.05e-4 0.065773 3.1502-0.5476 7-1.363zm-601.29-2.3702c2.0854-1.8112 4.8725-3.0592 7.6331-3.418 2.3916-0.31088 5.3166-1.4721 6.5-2.5806 2.6524-2.4843 6.8853-4.1486 10.552-4.1486 1.5234 0 7.7865-1.5886 13.918-3.5302 9.7349-3.0826 11.703-4.093 15.525-7.9695 4.2501-4.3111 4.5178-4.423 9.2668-3.8737 3.2201 0.37246 6.4272 0.025483 9.3903-1.0159 2.475-0.86988 5.625-1.5949 7-1.6112s4.1613-0.60832 6.1918-1.3156c2.6834-0.93475 8.1465-1.1477 20-0.77979 16.614 0.51573 37.957 0.60191 52.252 0.21099 7.3703-0.20156 8.4336 0.039201 14.723 3.3338 6.1353 3.214 7.5443 3.5511 14.841 3.5511 9.6291 0 12.496-1.4462 14.01-7.0663 0.75616-2.8082 2.2448-4.7162 5.5075-7.0593 2.4592-1.7661 4.3595-3.3219 4.223-3.4574-0.13659-0.1355-2.2733-0.44488-4.7483-0.68751s-5.7573-0.95243-7.2941-1.5773c-4.4693-1.8174-6.5443-2.1058-18.706-2.6002-6.325-0.25714-13.975-1.1604-17-2.0072-16.133-4.5164-26.124-6.5422-32.269-6.5434-6.7103-0.001284-6.7636 0.020275-6.1454 2.4837 0.88062 3.5087-2.4035 4.515-14.734 4.515-6.9156 0-12.547 0.6501-18.185 2.0991-6.6175 1.7009-9.7789 1.977-16.667 1.4554-12.087-0.91536-13.563-0.83199-17.033 0.96257-2.7735 1.4342-3.0284 1.9384-2.4236 4.7929 0.37173 1.7545 0.73906 3.6076 0.81629 4.1179 0.077224 0.51031-1.1421 1.4005-2.7096 1.9782-2.6437 0.97434-3.1141 0.74322-6.5-3.1933-3.0535-3.5502-4.2423-4.2412-7.2743-4.2282-1.9934 0.008516-5.5216 0.68491-7.8406 1.5031-2.319 0.81819-8.5341 2.1824-13.811 3.0316-5.2772 0.84919-10.074 1.9274-10.659 2.396-1.4161 1.1335-17.728 5.0848-20.992 5.0848-2.3079 0-2.5728 0.38741-2.5728 3.7629 0 2.9431 0.49019 3.9779 2.25 4.75 1.8678 0.81943 2.47 2.3244 3.5451 8.8588 1.1667 7.0912 3.4993 12.513 5.4201 12.597 0.39336 0.017284 2.1934-1.2523 4-2.8214zm832.28-10.557c-3.3-0.66746-7.5602-2.0354-9.4671-3.04-2.2648-1.1931-6.5036-1.9995-12.224-2.3257-4.8164-0.27462-8.5737-0.79615-8.3495-1.159 0.81321-1.3158 17.433 0.83837 21.23 2.7518 3.9511 1.9908 15.979 4.5049 17.388 3.6344 0.44167-0.27297 0.32658-1.8631-0.25576-3.5336-0.91976-2.6384-0.74776-3.3716 1.3097-5.5828 2.3186-2.4918 2.6054-2.5366 13.602-2.1269l11.234 0.4186 1.1157-3.3807c0.61366-1.8594 0.91499-3.5815 0.66962-3.8269-0.24537-0.24537-1.9777 0.17764-3.8497 0.94001-4.8408 1.9715-19.365 2.8922-25.904 1.642-6.6718-1.2757-16.534 0.68038-33.811 6.7064-2.3709 0.82694-4.5728 1.2415-4.8931 0.92116-0.61752-0.61752-0.11621-0.82747 6.2039-2.5983 2.2-0.61642 6.925-1.9735 10.5-3.0157 12.429-3.6233 16.152-4.1321 22-3.0059 6.6877 1.288 19.938 0.42719 25.811-1.6768 2.3709-0.84947 4.601-1.2543 4.9557-0.89954 0.35473 0.35473-0.010113 2.5399-0.81076 4.8559l-1.4557 4.211-11.3-0.35975c-9.7186-0.3094-11.573-0.11277-13.25 1.405-2.3124 2.0927-2.3943 3.0796-0.54935 6.6157 1.2831 2.4592 1.2257 2.7046-0.75616 3.2363-1.1795 0.31646-2.3695 0.53745-2.6445 0.49107s-3.2-0.63042-6.5-1.2979zm133.31-11.625c-2.0269-1.0705-3.9664-2.4015-4.3102-2.9577-0.89972-1.4558 3.8605-3.0041 9.3105-3.0283 2.5767-0.011462 7.6099-0.63773 11.185-1.3917 6.5269-1.3766 8.5259-1.2474 7.4573 0.48165-0.31643 0.512-2.3784 0.9309-4.5821 0.9309-2.2037 0-4.9314 0.4949-6.0617 1.0998-1.1302 0.60487-1.8131 0.70843-1.5175 0.23013 0.586-0.94818-13.924-0.035073-14.897 0.93743-0.90044 0.90044 7.1787 4.7327 9.9775 4.7327 1.7697 0 2.7373-0.7689 3.4609-2.75 0.55241-1.5125 1.0399-2.1579 1.0833-1.4343 0.30667 5.1109-4.703 6.5315-11.106 3.1494zm-950.16-2.1819c-1.7352-1.3092-1.7421-1.47-0.12079-2.8156 3.0393-2.5224 16.358-0.4646 13.766 2.127-1.7551 1.7551-11.575 2.2506-13.646 0.68856zm11.34-0.68962c2.2512-0.63662 2.0334-0.82564-2.1881-1.8991-3.3755-0.85837-5.4658-0.89642-7.4661-0.13592-5.5904 2.1255 2.9605 3.928 9.6542 2.035zm575.57-6.7609c-0.8781-2.2883 0.77802-3.6732 3.3982-2.8416 2.0723 0.65773 2.0931 0.77893 0.44568 2.5993-2.1231 2.346-3.015 2.4022-3.8438 0.24222zm3.4258-1.3918c0-0.51754-0.675-0.94098-1.5-0.94098-1.5464 0-1.9867 1.18-0.86052 2.3061 0.79893 0.79893 2.3605-0.10419 2.3605-1.3652zm643.22-69.498c-2.9651-2.0768-2.8377-2.5268 1.5343-5.4221 2.0587-1.3634 4.7342-3.5009 5.9454-4.75 1.2112-1.2491 3.3487-2.2712 4.75-2.2712 2.4215 0 2.5477 0.27251 2.5477 5.5 0 4.7141-0.26833 5.5-1.8779 5.5-1.0328 0-3.4934 0.675-5.4679 1.5-4.4506 1.8596-4.6986 1.8577-7.4317-0.056704zm8.4337-1.1933c5.3265-1.7491 5.3293-1.7523 5.3366-6 0.005914-3.4725-0.33152-4.25-1.8444-4.25-1.0184 0-3.2221 1.2375-4.8971 2.75-1.675 1.5125-4.2824 3.608-5.7942 4.6567-2.6051 1.8071-2.6527 1.977-0.91172 3.25 2.2707 1.6604 1.7339 1.6873 8.111-0.40673zm-36.656-17.25c-1.2068-0.77988-1.0486-0.97237 0.80902-0.98469 1.2876-0.008539 2.0356 0.42706 1.691 0.98469-0.74319 1.2025-0.63926 1.2025-2.5 0z" fill-rule="evenodd"/>
</svg>
